<?xml version="1.0" encoding="UTF-8" standalone="no"?>
<svg width="390px" height="51px" viewBox="0 0 390 51" version="1.1" xmlns="http://www.w3.org/2000/svg" xmlns:xlink="http://www.w3.org/1999/xlink" xmlns:sketch="http://www.bohemiancoding.com/sketch/ns">
    <!-- Generator: Sketch 3.3.3 (12072) - http://www.bohemiancoding.com/sketch -->
    <title>foothills-left</title>
    <desc>Created with Sketch.</desc>
    <defs></defs>
    <g id="Page-1" stroke="none" stroke-width="1" fill="none" fill-rule="evenodd" sketch:type="MSPage">
        <g id="flattened" sketch:type="MSLayerGroup" transform="translate(0.000000, -99.000000)" fill="#598F4D">
            <g id="bg" transform="translate(-1.000000, 3.000000)" sketch:type="MSShapeGroup">
                <g id="foothills" transform="translate(0.000000, 96.000000)">
                    <path d="M391,51 L391,30.9659644 L391,30.9659644 C390.601688,30.9883017 390.266082,31 390,31 C385.815918,31 381.263629,30.1221051 376.830602,29.220718 C372.617047,26.9708156 366.00313,25.3168127 361.839141,24.4683776 C354.851995,23.0465378 346.081734,22.7112382 339.074252,24.3096408 C331.71091,25.9891095 326.393764,25.6287686 319.390943,23.2120654 C315.661188,21.9264675 313.77174,21.5563648 309.871257,21.6989732 C300.932386,22.0240864 291.053027,21.7074618 282.221338,20.5224538 C274.455959,19.4813275 267.061691,15.3601142 259.1205,16.1139015 C252.881507,16.7064055 246.638701,19.5063689 240.189581,19.1748892 C227.524344,18.5246627 214.082994,16.3146568 201.365226,14.0091542 C195.749412,12.9922204 190.253065,10.7359516 184.452967,10.4388508 C179.053634,10.1621225 174.835419,9.99574606 169.674598,8.60573848 C158.56498,5.61393287 146.84828,0 135.168438,0 C124.556177,0 115.587227,3.44764321 105.066896,3.44934093 C97.7412583,3.45061422 89.2938134,2.24523361 82.0113873,3.44934093 C77.2593818,4.23496047 72.7929119,5.39450267 67.6672531,6.04812455 C53.9077465,7.80356617 42.3376278,13.5278508 28.3285953,13.496443 C19.2112861,13.4768451 9.48201197,13.9957236 0.999998824,14.3314325 L1,51 L391,51 L391,51 Z" id="foothills-left"></path>
                </g>
            </g>
        </g>
    </g>
</svg>