<?xml version="1.0" encoding="UTF-8" standalone="no"?>
<svg width="529px" height="85px" viewBox="0 0 529 85" version="1.1" xmlns="http://www.w3.org/2000/svg" xmlns:xlink="http://www.w3.org/1999/xlink" xmlns:sketch="http://www.bohemiancoding.com/sketch/ns">
    <!-- Generator: Sketch 3.3.3 (12072) - http://www.bohemiancoding.com/sketch -->
    <title>mountains</title>
    <desc>Created with Sketch.</desc>
    <defs></defs>
    <g id="Page-1" stroke="none" stroke-width="1" fill="none" fill-rule="evenodd" sketch:type="MSPage">
        <g id="flattened" sketch:type="MSLayerGroup" transform="translate(0.000000, -65.000000)" fill="#8CB485">
            <g id="bg" transform="translate(-1.000000, 3.000000)" sketch:type="MSShapeGroup">
                <g id="mountains" transform="translate(1.000000, 62.000000)">
                    <path d="M529,45.2817566 C527.447983,45.016765 525.826616,44.6073031 524,44 C517.88172,42.7032093 513.389262,41.1806191 507,41 C502.70887,41.1806191 499.460269,41.3184177 496,40 C491.672183,37.630602 488.424429,37.3690397 484,36 C479.298435,35.6078536 478.326142,34.0308243 475,31 C472.883845,29.5612988 469.94409,27.5228142 468,26 C466.824703,25.2823098 466.871306,24.5137845 466,24 C464.357749,22.9801363 460.025433,22.2979478 458,22 C455.467732,21.3997046 452.929603,21.4154409 450,22 C448.274461,20.9629168 447.758023,19.9523932 444,20 C440.971886,20.3317649 438.46426,23.2336178 435,24 C431.981038,25.535366 431.532386,24.5461076 428,24 C424.856399,23.1676956 421.664568,24.0663641 418,26 C414.158638,27.396924 414.733541,27.3271741 411,25 C407.831322,23.6070352 406.521374,23.2850797 404,24 C397.374621,24.5197388 391.958591,27.2059623 385,27 C381.292603,27.6117028 377.359796,28.1573685 374,29 C368.969694,29.5821388 365.505875,26.6968727 361,25 C358.833702,24.6775267 356.574339,24.1071933 355,24 C354.163731,24.0289373 352.802521,23.5402624 352,23 C351.282864,23.4177747 350.888439,24.5767296 350,24 C347.447074,24.1505744 344.260326,21.6412776 342,20 C339.979273,19.5955627 338.080443,18.8836029 336,18 C332.677546,16.7022159 330.037739,15.2719167 327,15 C324.075615,14.8334277 321.650179,15.7912135 319,15 C315.02715,14.8215192 311.370143,10.9401899 308,9 C304.318797,6.69394929 300.765586,1.63707823 297,1 C292.26491,0.821344105 287.923274,0.833252632 285,2 C281.685349,3.68534492 279.721699,6.06364795 270,6 C263.637987,6.73945687 259.37049,10.2261035 253,11 C249.309485,10.9550755 245.958359,10.9155222 243,11 C239.878882,11.4326925 236.636635,12.7915406 234,13 C229.668749,13.0607583 227.891932,10.0385442 225,8 C221.022759,6.23844812 217.268311,6.4336629 213,6 C205.875328,6.4336629 198.59902,2.68545393 192,7 C187.538185,9.04886056 184.103174,11.6559774 179,14 C175.820681,15.1383711 172.792805,16.9922736 169,19 C164.374318,21.0964625 159.518786,23.595552 155,25 C150.335174,27.1668342 144.613263,26.8737994 142,32 C135.408045,32.4329551 123.253751,33.5604375 117,31 C111.754007,28.41085 105.597425,17.5409164 98,19 C96.7031707,22.4459538 88.9100013,20.1952421 86,20 C81.7828206,18.802795 79.4476235,21.1602581 75,21 C73.3634861,20.3832267 72.5996327,18.6556397 70,20 C68.4244935,20.4597815 67.2141056,22.3902389 66,23 C63.1991088,25.0564731 59.6492873,26.7695998 57,28 C55.4749954,28.5124978 53.7723182,28.5188774 52,29 C50.7779109,29.7994694 49.6399683,30.73599 48,31 C44.7674899,32.8476271 40.0835387,33.3928675 36,33 C32.2967241,33.5187577 29.1976736,30.8537994 27,32 C26.3549355,31.5793689 23.3063001,34.1431047 22,35 C20.5953194,35.3148188 18.8536657,36.045492 17,36 C13.3872201,37.429433 10.722418,37.6505913 8,40 C5.12633343,41.5110807 3.14192431,44.9964515 2.84217094e-13,45 L0,85 L529,85 L529,45.2817566 L529,45.2817566 Z"></path>
                </g>
            </g>
        </g>
    </g>
</svg>