<?xml version="1.0" encoding="UTF-8" standalone="no"?>
<svg width="385px" height="13px" viewBox="0 0 385 13" version="1.1" xmlns="http://www.w3.org/2000/svg" xmlns:xlink="http://www.w3.org/1999/xlink" xmlns:sketch="http://www.bohemiancoding.com/sketch/ns">
    <!-- Generator: Sketch 3.3.3 (12072) - http://www.bohemiancoding.com/sketch -->
    <title>Fill 104</title>
    <desc>Created with Sketch.</desc>
    <defs></defs>
    <g id="Page-1" stroke="none" stroke-width="1" fill="none" fill-rule="evenodd" sketch:type="MSPage">
        <g id="NODM_NewLogo-(1)" sketch:type="MSLayerGroup" fill="#004B6C">
            <g id="Group-148" sketch:type="MSShapeGroup">
                <path d="M139.3081,10.2793 C139.8501,11.1143 140.8181,11.5293 141.9001,11.8053 C140.5071,11.8453 139.1501,11.8113 138.3581,11.2633 C137.7071,10.8113 137.0251,9.5883 136.9061,8.6053 C136.8131,7.8503 136.8971,6.9063 136.9681,6.1433 C137.1071,4.6553 137.9531,3.6883 139.4981,3.6323 C137.7661,4.8923 138.3071,8.7403 139.3081,10.2793 L139.3081,10.2793 L139.3081,10.2793 Z M156.0661,3.9773 C157.1411,4.2233 158.2141,4.4873 158.9111,4.9103 C159.5291,5.2873 159.7941,5.8633 160.2391,6.3403 C160.7511,6.8883 161.2461,7.4833 162.0081,7.8163 C163.0341,8.2593 164.7571,8.2983 166.1201,8.4583 C166.4601,8.4973 166.8851,8.5133 167.0051,8.6543 C164.5251,8.8853 162.1181,8.3933 160.8071,9.3923 C160.5091,9.6203 160.3271,9.9793 160.0501,10.2283 C159.3321,10.8733 158.5361,11.1113 157.1411,11.1663 C155.8551,11.2153 154.3661,11.1293 152.9041,11.1653 C153.2401,10.7943 153.8941,10.6073 154.2951,10.1803 C154.6271,9.8233 154.9501,9.0973 155.0541,8.5553 C155.3141,7.2123 154.9491,5.3903 154.0401,4.6163 C153.8551,4.4573 153.5821,4.3233 153.4121,4.2223 C153.2571,4.1333 152.8721,4.0943 152.9031,3.8293 C153.9751,4.2193 155.0631,4.7233 155.7481,5.4043 C156.8061,6.4533 157.0091,8.8873 155.7501,9.9823 C155.2391,10.4293 154.5451,10.6123 153.9141,10.9673 C154.8501,10.9873 155.7051,10.9013 156.5721,10.8203 C157.2811,10.7553 158.4541,10.6103 158.8481,10.3773 C159.4751,10.0073 159.6141,9.0843 159.6061,8.3583 C159.5911,7.0323 159.0041,6.0473 158.0871,5.5023 C156.7021,4.6753 154.4941,4.3543 153.0921,3.5813 C154.2441,3.6383 155.1821,3.7713 156.0661,3.9773 L156.0661,3.9773 L156.0661,3.9773 Z M143.6711,2.9413 C145.4241,2.9423 146.9271,3.1293 148.2241,3.3833 C149.7861,3.6943 151.1431,4.2243 151.7651,5.1573 C151.9661,5.4613 152.2051,6.0913 152.2711,6.3393 C152.5131,7.2753 152.6461,8.3653 152.3331,9.1953 C152.2331,9.4653 151.8121,10.0813 151.6381,10.2303 C150.7031,11.0293 147.5701,11.2313 145.6941,11.3123 C144.0801,11.3833 142.2481,11.2993 141.3941,10.8203 C140.6501,10.4053 140.5021,9.7733 140.3211,8.8503 C140.0361,7.4213 139.6781,4.7313 140.5731,3.6813 C141.1051,3.0543 142.6151,2.9273 143.5441,2.9413 L143.6711,2.9413 L143.6711,2.9413 Z M153.7891,2.7923 C156.6761,3.0773 159.6001,3.1953 162.2621,3.6803 C163.5651,3.9173 165.0891,4.0923 165.9931,4.5163 C166.8301,4.9093 167.7071,5.8003 168.0821,6.6843 C168.3071,7.2193 168.4181,8.0363 168.4591,8.6543 C168.4911,9.1093 168.4741,10.2353 168.2061,10.7193 C167.4731,12.0643 164.6081,12.0023 162.1361,12.0023 C158.7141,12.0033 155.0801,12.0513 151.7641,12.0023 C151.5301,11.9993 151.1321,12.0913 150.9441,11.9033 C151.7671,11.5103 152.9701,11.5993 154.3601,11.5583 C157.7961,11.4603 161.3101,11.5703 164.2871,11.3623 C165.0371,11.3103 165.9081,11.3133 166.3721,11.1653 C167.7071,10.7363 167.5451,8.6703 167.2581,7.4713 C167.1881,7.1793 167.2061,6.8723 167.1311,6.6843 C166.9591,6.2503 166.3631,5.4863 165.9941,5.2583 C165.1231,4.7163 163.4351,4.4773 162.0111,4.2693 C160.5561,4.0593 158.9191,3.8413 157.5821,3.6303 C154.7921,3.1853 151.7471,3.0473 148.9181,2.6963 C148.7681,2.6763 148.4801,2.6943 148.4121,2.5453 C150.1401,2.5133 151.9401,2.6093 153.7891,2.7923 L153.7891,2.7923 L153.7891,2.7923 Z M136.7781,4.7163 C136.7721,3.9233 136.7611,3.1263 137.0301,2.5473 C137.6121,2.1783 138.7581,1.9903 139.8131,2.1543 C138.2591,2.5843 137.1691,3.3773 136.7781,4.7163 L136.7781,4.7163 L136.7781,4.7163 Z M192.8071,1.6633 C173.8341,1.6603 154.8641,1.6603 135.8911,1.6633 C136.2881,4.8593 134.9961,9.1893 136.8411,11.2653 C137.1051,11.5613 138.0241,12.2493 138.5501,12.3963 C139.0171,12.5293 140.0391,12.5333 140.7631,12.4953 C142.2171,12.4203 143.8941,12.0873 145.1261,12.0513 C146.8001,12.0053 148.6261,12.1813 150.5011,12.2493 C154.0641,12.3783 157.8261,12.3193 161.5051,12.4453 C162.4101,12.4763 163.4171,12.4103 164.3481,12.4453 C166.0831,12.5103 167.6391,12.5023 168.5881,11.9033 C168.9771,11.6573 169.0881,11.2203 169.4101,10.9193 C169.6791,10.6663 170.1011,10.3633 170.4851,10.2293 C171.8471,9.7523 174.0441,9.9603 175.6061,9.8353 C175.5121,8.9903 175.2931,8.2413 175.3521,7.2763 C172.2721,7.4383 169.7151,8.0083 169.4721,10.3753 C169.5651,9.4203 169.0471,8.5553 169.2191,7.8173 C169.3501,7.2493 170.4561,6.5973 171.0521,6.2413 C172.0931,5.6173 174.0451,5.0923 175.6691,4.9113 C175.9581,4.7203 176.0551,4.4373 176.3011,4.2213 C176.9021,3.6883 177.9541,3.2333 178.5791,2.7923 C174.2521,3.3013 169.5431,3.5073 169.0291,6.9783 C168.5211,5.1273 167.7891,3.4493 166.8151,1.9583 C167.2581,1.9563 167.7011,1.9573 168.1441,1.9573 C168.7051,2.4233 169.0481,3.0563 169.4081,3.6803 C170.8221,3.4223 172.3431,2.8333 174.1521,2.5973 C175.7911,2.3843 177.7081,2.3303 179.5911,2.2013 C180.5201,2.1393 181.4871,2.1353 182.4341,2.1033 C183.3811,2.0723 184.3171,1.9343 185.1561,1.9573 C185.8771,1.9753 186.8151,2.1233 187.6211,2.2533 C189.0971,2.4893 190.4011,2.8413 191.4771,3.3343 C192.0231,3.5863 192.3441,3.9923 192.8711,4.1733 C192.8681,3.3843 192.8711,2.5963 192.8691,1.8073 C192.8741,1.7403 192.8811,1.6703 192.8071,1.6633 L192.8071,1.6633 Z M188.6318,3.9258 C189.2178,4.1968 189.7568,4.6478 190.0878,5.0608 C190.9578,6.1508 191.3298,9.0708 190.1488,10.1308 C189.5508,10.6718 188.1078,10.9888 186.9898,11.1158 C186.1158,11.2148 184.9178,11.2408 183.8248,11.2148 C182.7148,11.1868 181.5648,11.2168 180.6008,11.1138 C180.1828,11.0728 179.3578,10.9268 179.0848,10.8218 C178.8518,10.7308 178.3188,10.3528 178.1978,10.2298 C177.8768,9.8978 177.6938,9.2568 177.5658,8.8018 C177.1348,7.2498 177.1508,5.4618 178.1988,4.5678 C178.3518,4.4358 178.6528,4.2788 178.9558,4.1238 C179.2148,3.9918 179.5108,3.8188 179.7788,3.7308 C181.0938,3.2998 183.5398,3.2318 185.0898,3.3348 C186.5948,3.4368 187.7108,3.5058 188.6318,3.9258 L188.6318,3.9258 Z M184.9648,2.5978 C183.2178,2.4898 180.5488,2.6748 179.2088,3.0888 C178.2268,3.3918 177.1988,4.0658 176.7438,4.7638 C175.8608,6.1188 176.1578,8.1348 176.6178,9.4908 C176.7858,9.9878 176.9148,10.4628 177.1848,10.8208 C177.7708,11.5888 179.7218,12.5198 181.2348,12.6438 C182.7508,12.7648 184.4438,12.6428 186.1648,12.6428 C188.7758,12.6418 190.6758,12.6218 191.7938,11.5598 C192.0858,11.2838 192.4688,10.9168 192.6158,10.5718 C192.8198,10.1028 192.8368,9.2918 192.8688,8.5068 C192.9278,7.0098 192.7908,5.7218 192.1108,4.8618 C191.0248,3.4928 188.2598,2.6788 185.0898,2.5968 C185.0478,2.5968 185.0068,2.5988 184.9648,2.5978 L184.9648,2.5978 Z M144.4927,7.7197 C144.5507,6.7147 144.4357,5.5427 144.5567,4.9107 C144.5977,4.6857 144.8777,4.2567 144.9347,4.2227 C145.4837,3.8797 147.5357,4.0257 148.4797,4.2707 C148.9307,4.3897 149.6527,4.6987 149.8067,4.8617 C149.9757,5.0457 150.0507,5.4617 149.9957,5.6507 C148.9137,4.8597 147.2807,5.5817 146.8967,6.2407 C146.2377,7.3687 147.5047,8.8587 149.3627,8.4567 C149.5537,8.4147 149.6967,8.2937 149.8677,8.2107 C150.0127,8.1377 150.2957,7.9077 150.3117,8.0647 C150.4297,8.7947 150.4677,9.4637 149.9317,9.7857 C149.5227,10.0327 148.6057,10.0467 147.8447,10.1297 C147.0227,10.2227 146.1937,10.3017 145.5027,10.2797 C144.4277,9.9167 144.4287,8.8467 144.4927,7.7197 L144.4927,7.7197 Z M144.6827,3.3847 C143.7487,3.3377 142.4927,3.2667 141.9637,3.7287 C141.4807,4.1527 141.4697,5.3087 141.5217,6.1437 C141.5707,6.9617 141.5487,8.0267 141.7127,8.7507 C141.7677,9.0107 141.9367,9.2457 142.0277,9.4907 C142.1317,9.7757 142.1227,10.0317 142.2787,10.2297 C142.4507,10.4477 142.9807,10.8047 143.2277,10.8687 C143.5007,10.9427 144.2447,10.9717 144.6827,10.9667 C146.0847,10.9607 148.0197,10.6817 149.4897,10.4287 C150.6277,10.2277 151.1527,9.9507 151.2587,8.9497 C151.3257,8.3327 151.1217,7.7367 151.0067,6.9307 C150.9037,6.2017 150.9247,5.2277 150.5637,4.7637 C150.3077,4.4337 149.7767,4.1697 149.1097,3.9737 C147.8717,3.6157 146.4447,3.4727 144.6827,3.3847 L144.6827,3.3847 Z M188.6958,8.1621 C186.7228,9.0701 182.7928,9.0281 180.0968,8.6541 C180.0798,6.8191 180.3818,5.2331 182.9408,5.4031 C181.6318,6.3781 182.6028,8.3881 184.6488,8.2111 C186.1708,8.0791 186.9708,6.4901 185.9138,5.5521 C185.8358,5.4811 185.4278,5.3751 185.6608,5.3051 C188.0268,5.2031 188.5728,6.5161 188.6958,8.1621 L188.6958,8.1621 Z M179.0208,9.2941 C182.2898,9.9931 187.2518,9.8841 189.8988,8.8501 C189.8188,7.6551 189.5278,6.7481 189.0108,5.8951 C188.3898,4.8681 187.0038,4.3811 184.7758,4.4681 C184.1798,4.4901 183.5118,4.5681 182.8788,4.6161 C182.1878,4.6681 181.4658,4.6691 181.0448,4.7631 C180.5288,4.8791 179.5778,5.3851 179.3998,5.7491 C179.2778,5.9991 179.2388,6.3821 179.2088,6.6341 C179.1208,7.4331 179.0978,8.3081 179.0208,9.2941 L179.0208,9.2941 Z M169.2192,12.6436 C171.8722,12.6426 174.5322,12.6426 177.1872,12.6426 C177.4342,12.5736 177.0642,12.4506 177.0592,12.4456 C176.7842,12.2436 176.5212,12.0286 176.2392,11.7556 C175.7722,11.3056 175.3322,10.6886 174.5302,10.5756 C173.3182,10.4026 171.4582,10.5596 170.7992,10.9676 C170.6532,11.0586 170.5692,11.2366 170.4192,11.3626 C170.2822,11.4806 170.0732,11.5576 169.9762,11.6586 C169.6622,11.9866 169.5682,12.4256 169.2192,12.6436 L169.2192,12.6436 Z M339.6816,7.5991 C339.8106,8.4361 340.3846,9.0571 340.8946,9.5811 C342.4546,11.1831 344.5776,12.6851 347.7616,12.4091 C346.7796,12.2741 346.1286,11.9071 345.5706,11.4651 C344.3826,10.5311 343.7986,9.0511 342.6816,8.1921 C341.9996,7.6661 340.9416,7.4941 339.6816,7.4481 L339.6816,7.5991 L339.6816,7.5991 Z M379.2836,4.0251 C378.6896,3.7371 377.6716,3.8241 376.5686,3.7781 C375.4316,3.7311 374.4416,3.6751 373.9116,3.7761 C373.6446,4.1071 373.6286,4.5901 373.5666,5.0671 C373.5056,5.5171 373.4236,6.0301 373.3926,6.5071 C373.3186,7.6651 373.4686,9.9261 374.3166,10.2271 C374.7186,10.3691 375.6756,10.2751 376.4516,10.2751 C377.2756,10.2751 378.0316,10.2811 378.6446,10.2261 C379.6636,10.1371 380.8496,9.0461 380.4356,8.0941 C380.1606,8.1841 380.0606,8.3961 379.9136,8.5401 C379.7456,8.7031 379.5916,8.8511 379.3396,8.9861 C377.1546,10.1601 374.8186,8.6661 374.8926,6.8041 C374.9496,5.4621 376.1206,4.4701 377.6656,4.4241 C378.4476,4.4001 379.0116,4.6731 379.4546,4.9181 C379.6286,5.0161 379.9296,5.2901 380.0336,5.1171 C380.0706,4.7201 379.7536,4.2581 379.2836,4.0251 L379.2836,4.0251 L379.2836,4.0251 Z M371.0276,5.0671 C370.7556,5.5221 370.0116,6.1301 369.4686,6.3591 C368.9026,6.5921 368.1756,6.5951 367.4476,6.6571 C365.4196,6.8191 363.1956,6.8511 361.1546,6.9531 C361.0136,6.9591 360.7106,6.8621 360.6346,7.0511 C362.5956,7.1541 364.8786,7.2771 366.6976,7.3501 C367.4356,7.3791 368.1156,7.3391 368.7166,7.4491 C370.5386,7.7791 371.3266,8.8041 372.1816,9.8291 C372.3266,10.0031 372.4116,10.3221 372.7576,10.3761 C372.7266,8.4091 372.8026,6.1881 372.7576,4.2741 C372.7516,4.0391 372.8656,3.6881 372.5856,3.5311 C371.3676,3.5321 371.4156,4.4181 371.0276,5.0671 L371.0276,5.0671 L371.0276,5.0671 Z M337.0256,2.6381 C336.6976,2.6671 336.2496,2.6521 336.0446,2.6861 C335.1386,2.8391 334.3186,3.7021 334.0236,4.3231 C333.5116,5.4131 333.2796,7.6441 333.7926,8.8361 C333.9026,9.0931 334.2536,9.7301 334.4296,9.9301 C334.5336,10.0511 334.8026,10.1751 335.0056,10.3261 C335.2046,10.4751 335.3536,10.6751 335.5236,10.7701 C336.8986,11.5491 338.6286,11.5451 340.9526,11.5151 C340.5486,10.9911 339.9686,10.5731 339.5096,9.9791 C339.0296,9.3581 338.5506,8.4141 338.4706,7.5481 C338.2536,5.2361 339.3246,3.8661 340.4316,2.7861 C340.4846,2.7361 340.8926,2.5881 340.6056,2.4401 C339.5566,2.5111 338.0296,2.5491 337.0256,2.6381 L337.0256,2.6381 L337.0256,2.6381 Z M342.9726,2.3901 C342.4906,2.6281 341.8656,2.9761 341.5296,3.2831 C341.3066,3.4831 341.0816,3.8251 340.8356,4.1261 C340.2676,4.8201 339.6526,5.6701 339.5666,6.6541 C340.3496,6.6231 341.1156,6.6421 341.7596,6.5071 C342.5256,6.3441 343.4066,6.0571 343.7816,5.5641 C344.0056,5.2701 344.0546,4.8491 344.2426,4.5221 C344.7016,3.7211 345.3966,2.9031 346.0336,2.3401 C346.1466,2.2361 346.5366,2.1311 346.3206,2.0411 C345.0096,1.8321 343.7326,2.0141 342.9726,2.3901 L342.9726,2.3901 L342.9726,2.3901 Z M358.3846,3.0841 C357.2126,3.4891 355.4156,3.1481 353.9416,3.2331 C353.4886,3.2601 352.9106,3.2761 352.4956,3.3811 C351.8986,3.5351 350.9626,4.4261 350.7656,4.7701 C350.5626,5.1221 350.3906,5.7621 350.3616,6.1101 C350.2836,7.0661 350.6916,7.6821 351.1116,8.1441 C351.6676,8.7551 352.3846,9.2471 353.1896,9.5321 C354.4156,9.9641 355.7946,10.1461 357.1736,10.3251 C357.6176,10.3841 358.1836,10.3901 358.6136,10.5241 C358.7366,10.5631 358.8206,10.7011 358.9626,10.7701 C359.1136,10.8481 359.3106,10.8531 359.4236,10.9201 C359.6226,11.0381 359.7696,11.2441 359.9436,11.3661 C360.0996,11.4751 360.2656,11.5441 360.4026,11.6161 C360.4436,11.6351 360.4926,11.7511 360.5216,11.7651 C360.8596,11.9211 361.4586,12.0371 361.9646,12.1121 C362.6896,12.2151 363.5706,12.1861 364.3296,12.2111 C364.5646,12.2181 364.8766,12.3951 365.0236,12.1601 C364.2046,11.9861 363.0386,11.8521 362.2516,11.7141 C361.5216,11.5881 360.8226,11.0931 360.0016,10.7231 C359.3336,10.4221 358.5796,10.0671 357.8636,9.9301 C357.3656,9.8321 356.8456,9.8391 356.3636,9.7811 C355.8806,9.7221 355.3746,9.6781 354.9216,9.5811 C352.9196,9.1611 351.0176,8.3321 350.7656,6.4561 C352.6736,6.4301 354.2946,6.7871 355.9606,6.9531 C356.5766,7.0141 357.2576,6.9821 357.6936,7.2011 C358.0426,7.3791 358.3166,7.8561 358.5566,8.2441 C359.0686,9.0571 359.2986,9.8841 360.2306,10.2261 C359.3266,8.7641 358.8766,6.3971 359.5386,4.4231 C358.9046,4.7521 358.5996,5.4981 357.7476,5.8111 C356.9196,6.1191 355.6406,6.1021 354.4586,6.2101 C353.2596,6.3171 351.9846,6.3071 350.8246,6.3071 C351.0706,5.4571 351.1636,4.8981 351.6896,4.4231 C353.0196,3.2191 356.3266,3.9231 358.4416,3.5301 C358.6976,3.4831 358.9726,3.4581 359.1366,3.3831 C359.7496,3.0861 359.9296,2.4731 360.5216,2.2411 C360.9236,2.0821 361.3276,2.2161 361.5586,1.9441 C359.7906,1.5641 359.4416,2.7181 358.3846,3.0841 L358.3846,3.0841 L358.3846,3.0841 Z M360.1716,8.9861 C360.7326,9.7881 361.3336,10.3111 362.4256,10.6731 C362.9136,10.8341 363.5876,10.9751 364.1586,11.0681 C365.6016,11.3081 367.3296,11.3871 369.0646,11.5661 C370.7596,11.7421 372.5366,12.0221 374.0276,12.0611 C375.1466,12.0901 376.5356,11.9861 377.8946,11.9621 C379.2146,11.9401 380.6656,11.8871 381.4156,11.5161 C382.5686,10.9451 382.8676,9.4071 382.9746,7.9951 C383.1306,5.9561 382.7476,3.7091 381.5316,2.7861 C380.2616,1.8191 377.9766,1.6991 375.7596,1.8431 C374.4956,1.9281 372.9116,2.2771 371.1426,2.3391 C369.6346,2.3941 368.0136,2.3901 366.4666,2.3911 C365.1326,2.3891 362.9316,2.2871 361.9066,2.5881 C360.5426,2.9861 359.7856,4.7761 359.9436,6.3071 C360.1636,5.8311 360.5336,5.1381 360.9826,4.8691 C361.0486,4.8281 361.1076,4.7501 361.1566,4.7201 C362.6796,3.7771 364.7306,3.6831 367.2166,3.5301 C369.6776,3.3781 372.8616,3.0901 375.2986,2.9341 C376.7186,2.8461 378.3456,2.8451 379.3376,3.1331 C380.1266,3.3631 381.1366,4.1881 381.4156,4.7211 C381.8206,5.4871 381.9566,6.9141 381.8806,7.9951 C381.8086,8.9671 381.5136,9.8651 380.8396,10.3251 C379.9086,10.9651 377.8276,10.9371 376.1616,10.9211 C373.3656,10.8951 370.5236,10.7181 367.9686,10.4741 C366.1206,10.2991 364.5216,10.0901 363.1756,9.5811 C361.9496,9.1181 361.1096,8.3761 360.2326,7.7471 C360.2046,7.7271 359.9496,7.4171 359.8276,7.6481 C359.9766,8.0661 360.0336,8.5621 360.1716,8.9861 L360.1716,8.9861 L360.1716,8.9861 Z M358.1526,1.9441 C358.0446,1.9991 358.0316,2.1351 357.9236,2.1891 C356.6426,2.5081 354.4376,2.5221 352.9606,2.3401 C352.7366,2.2991 352.9806,1.8591 352.7286,1.8441 C352.2456,2.0671 351.7476,2.1811 351.3376,2.4391 C350.7836,2.7961 350.4726,3.4891 350.0726,4.0251 C349.7576,4.4501 349.3946,4.8271 349.1486,5.2161 C348.3496,5.6631 347.6406,6.2451 346.5506,6.5571 C344.7556,7.0711 342.4256,6.8741 340.3746,6.9051 C340.0876,6.9081 339.5766,6.7881 339.5666,7.0521 C339.5586,7.2301 339.8416,7.1471 339.9116,7.1521 C340.4726,7.1821 340.9526,7.1311 341.4706,7.1511 C342.9026,7.2081 344.3436,7.1641 345.6266,7.2491 C347.3726,7.3671 348.7856,7.9371 349.5506,8.8391 C350.1246,9.5091 350.3806,10.3011 350.9956,10.8701 C351.5136,11.3491 352.1036,11.7471 352.9586,12.0131 C352.7716,11.4011 353.0526,11.0131 353.5356,10.8711 C354.0916,10.7091 355.1136,10.8371 355.9606,10.9211 C356.8946,11.0131 357.6326,11.2791 357.9826,11.4671 C358.0156,11.6521 358.2636,11.6921 358.4416,11.9131 C358.7266,12.2631 358.6196,12.6101 359.3656,12.4591 C359.2326,12.0301 358.6716,11.5351 358.3266,11.1201 C357.1196,10.5891 355.6266,10.5791 354.2866,10.2261 C353.6616,10.0601 353.0256,9.9041 352.4376,9.6321 C351.9136,9.3871 351.2536,9.0931 350.8786,8.7871 C350.0076,8.0761 349.5096,6.2551 350.0726,4.9191 C350.3966,4.1501 351.3356,3.1841 352.2656,2.9361 C353.7856,2.5261 356.6446,2.9621 358.0956,2.6371 C358.2696,2.3741 358.5276,2.1811 358.5566,1.7941 L358.2106,1.7941 C358.1446,1.8021 358.1486,1.8721 358.1526,1.9441 L358.1526,1.9441 L358.1526,1.9441 Z M384.4176,12.5571 L343.6076,12.5571 C340.7086,12.5581 337.4276,12.8551 335.2966,12.1121 C333.9476,11.6421 332.7386,10.5211 332.4106,9.0851 C332.1996,8.1701 332.1816,6.8901 332.2926,5.9101 C332.3926,5.0201 332.6956,4.0041 333.1586,3.3331 C333.4846,2.8581 334.2986,2.1271 335.1206,1.8931 C336.1876,1.5911 337.8146,1.6441 339.3356,1.6461 C348.4436,1.6441 357.1796,1.6441 366.3516,1.6461 C367.8476,1.6461 369.3476,1.7451 370.6796,1.6461 C371.7926,1.5621 372.7716,1.2271 373.9116,1.0991 C375.2966,0.9451 376.7986,0.9531 378.4156,1.0511 C379.4886,1.1141 380.5426,1.0781 381.2446,1.2991 C382.4136,1.6651 383.5136,2.7111 383.9546,3.7791 C384.4256,4.9081 384.4176,6.4341 384.4196,7.9941 C384.4196,9.4611 384.4176,11.0371 384.4176,12.5571 L384.4176,12.5571 Z M338.9903,10.7715 C338.2793,10.7145 337.6623,10.6765 337.1423,10.5225 C335.9063,10.1615 335.0973,9.5355 334.6603,8.3915 C334.4313,7.7975 334.2463,7.0345 334.2543,6.4065 C334.2693,5.4145 334.8653,4.0585 335.5823,3.6305 C336.7403,2.9395 337.7283,3.9435 337.8363,4.7695 C337.8903,5.2075 337.7463,5.6435 337.7203,6.0605 C337.6813,6.6205 337.7563,7.2285 337.8343,7.7955 C338.0113,9.0835 338.2383,9.9295 338.9903,10.7715 L338.9903,10.7715 Z M45.2607,7.6001 C45.1337,8.4371 44.5597,9.0601 44.0477,9.5831 C42.4897,11.1841 40.3647,12.6861 37.1787,12.4111 C38.1607,12.2761 38.8137,11.9101 39.3737,11.4681 C40.5597,10.5331 41.1437,9.0541 42.2607,8.1951 C42.9427,7.6691 44.0047,7.4961 45.2607,7.4501 C45.2627,7.5011 45.2607,7.5501 45.2607,7.6001 L45.2607,7.6001 Z M5.6627,4.0281 C6.2527,3.7381 7.2687,3.8261 8.3757,3.7801 C9.5147,3.7341 10.5007,3.6741 11.0307,3.7781 C11.2977,4.1111 11.3137,4.5931 11.3757,5.0681 C11.4367,5.5181 11.5167,6.0331 11.5497,6.5081 C11.6237,7.6651 11.4757,9.9261 10.6257,10.2281 C10.2217,10.3701 9.2667,10.2781 8.4897,10.2781 C7.6667,10.2761 6.9127,10.2821 6.2977,10.2301 C5.2787,10.1381 4.0947,9.0461 4.5077,8.0941 C4.7817,8.1871 4.8797,8.3991 5.0267,8.5401 C5.1967,8.7051 5.3527,8.8541 5.6047,8.9901 C7.7897,10.1601 10.1257,8.6671 10.0497,6.8051 C9.9927,5.4621 8.8197,4.4711 7.2807,4.4211 C6.4947,4.4031 5.9287,4.6731 5.4897,4.9211 C5.3137,5.0191 5.0147,5.2941 4.9107,5.1201 C4.8717,4.7211 5.1907,4.2581 5.6627,4.0281 M13.9167,5.0691 C14.1907,5.5231 14.9327,6.1301 15.4757,6.3591 C16.0417,6.5931 16.7687,6.5971 17.4947,6.6571 C19.5227,6.8211 21.7487,6.8541 23.7897,6.9541 C23.9307,6.9601 24.2317,6.8631 24.3077,7.0541 C22.3447,7.1551 20.0657,7.2771 18.2467,7.3521 C17.5067,7.3821 16.8307,7.3401 16.2257,7.4511 C14.4057,7.7791 13.6157,8.8071 12.7627,9.8301 C12.6177,10.0061 12.5317,10.3231 12.1847,10.3761 C12.2177,8.4111 12.1417,6.1901 12.1847,4.2751 C12.1907,4.0401 12.0767,3.6891 12.3587,3.5321 C13.5747,3.5341 13.5267,4.4181 13.9167,5.0691 M47.9167,2.6381 C48.2467,2.6661 48.6967,2.6551 48.8997,2.6891 C49.8037,2.8411 50.6257,3.7021 50.9187,4.3251 C51.4307,5.4141 51.6627,7.6461 51.1497,8.8381 C51.0397,9.0941 50.6887,9.7301 50.5147,9.9301 C50.4087,10.0521 50.1377,10.1751 49.9387,10.3271 C49.7377,10.4771 49.5887,10.6761 49.4187,10.7741 C48.0437,11.5491 46.3137,11.5461 43.9907,11.5181 C44.3957,10.9931 44.9737,10.5741 45.4347,9.9801 C45.9147,9.3611 46.3937,8.4131 46.4737,7.5491 C46.6887,5.2391 45.6177,3.8691 44.5127,2.7871 C44.4597,2.7371 44.0497,2.5901 44.3367,2.4421 C45.3857,2.5111 46.9147,2.5521 47.9167,2.6381 M41.9717,2.3921 C42.4537,2.6281 43.0787,2.9771 43.4147,3.2851 C43.6357,3.4841 43.8607,3.8281 44.1087,4.1251 C44.6747,4.8241 45.2937,5.6721 45.3777,6.6561 C44.5947,6.6251 43.8287,6.6441 43.1827,6.5071 C42.4187,6.3461 41.5397,6.0571 41.1627,5.5641 C40.9387,5.2721 40.8897,4.8511 40.6997,4.5241 C40.2407,3.7221 39.5477,2.9051 38.9107,2.3411 C38.7977,2.2381 38.4057,2.1331 38.6237,2.0431 C39.9327,1.8311 41.2117,2.0151 41.9717,2.3921 M26.5597,3.0851 C27.7317,3.4921 29.5267,3.1501 31.0047,3.2351 C31.4537,3.2601 32.0317,3.2781 32.4467,3.3831 C33.0457,3.5361 33.9817,4.4271 34.1787,4.7721 C34.3817,5.1221 34.5517,5.7621 34.5827,6.1121 C34.6607,7.0681 34.2527,7.6831 33.8327,8.1451 C33.2747,8.7561 32.5577,9.2501 31.7527,9.5331 C30.5287,9.9651 29.1497,10.1481 27.7707,10.3281 C27.3267,10.3841 26.7607,10.3911 26.3267,10.5261 C26.2057,10.5631 26.1217,10.7031 25.9817,10.7731 C25.8327,10.8481 25.6337,10.8551 25.5187,10.9221 C25.3217,11.0411 25.1747,11.2461 25.0007,11.3671 C24.8467,11.4781 24.6767,11.5441 24.5377,11.6181 C24.4987,11.6361 24.4497,11.7531 24.4227,11.7641 C24.0827,11.9221 23.4837,12.0401 22.9797,12.1141 C22.2527,12.2171 21.3737,12.1881 20.6147,12.2121 C20.3777,12.2201 20.0657,12.3971 19.9207,12.1631 C20.7397,11.9871 21.9037,11.8531 22.6927,11.7161 C23.4227,11.5881 24.1197,11.0951 24.9427,10.7231 C25.6087,10.4231 26.3627,10.0691 27.0787,9.9301 C27.5767,9.8331 28.0987,9.8391 28.5767,9.7821 C29.0637,9.7221 29.5697,9.6771 30.0227,9.5831 C32.0227,9.1621 33.9247,8.3331 34.1767,6.4581 C32.2707,6.4321 30.6477,6.7921 28.9857,6.9531 C28.3677,7.0141 27.6847,6.9831 27.2507,7.2021 C26.9017,7.3791 26.6277,7.8581 26.3857,8.2451 C25.8757,9.0581 25.6457,9.8861 24.7117,10.2281 C25.6177,8.7631 26.0657,6.3981 25.4037,4.4251 C26.0377,4.7541 26.3427,5.4991 27.1947,5.8131 C28.0247,6.1211 29.3017,6.1041 30.4837,6.2091 C31.6847,6.3171 32.9597,6.3071 34.1197,6.3091 C33.8717,5.4581 33.7807,4.9011 33.2547,4.4251 C31.9267,3.2201 28.6157,3.9251 26.5007,3.5331 C26.2467,3.4851 25.9697,3.4601 25.8097,3.3831 C25.1927,3.0871 25.0147,2.4731 24.4207,2.2421 C24.0207,2.0841 23.6157,2.2181 23.3837,1.9461 C25.1537,1.5641 25.5027,2.7201 26.5597,3.0851 M24.7687,8.9871 C24.2097,9.7881 23.6087,10.3121 22.5187,10.6741 C22.0307,10.8361 21.3567,10.9771 20.7857,11.0731 C19.3407,11.3101 17.6147,11.3881 15.8777,11.5681 C14.1807,11.7441 12.4037,12.0241 10.9147,12.0631 C9.7957,12.0931 8.4087,11.9871 7.0477,11.9621 C5.7297,11.9421 4.2787,11.8891 3.5267,11.5181 C2.3757,10.9481 2.0757,9.4081 1.9687,7.9961 C1.8137,5.9581 2.1957,3.7101 3.4117,2.7871 C4.6817,1.8211 6.9657,1.6991 9.1827,1.8451 C10.4467,1.9291 12.0317,2.2781 13.8017,2.3421 C15.3057,2.3971 16.9307,2.3891 18.4757,2.3901 C19.8117,2.3901 22.0127,2.2881 23.0377,2.5911 C24.3997,2.9871 25.1587,4.7801 24.9987,6.3101 C24.7787,5.8331 24.4107,5.1371 23.9597,4.8711 C23.8937,4.8301 23.8347,4.7521 23.7877,4.7201 C22.2627,3.7781 20.2117,3.6861 17.7277,3.5321 C15.2627,3.3791 12.0827,3.0921 9.6457,2.9361 C8.2257,2.8461 6.5987,2.8461 5.6047,3.1351 C4.8177,3.3651 3.8057,4.1911 3.5267,4.7211 C3.1237,5.4901 2.9847,6.9131 3.0647,7.9961 C3.1337,8.9651 3.4287,9.8661 4.1047,10.3291 C5.0357,10.9661 7.1147,10.9381 8.7787,10.9231 C11.5787,10.8981 14.4187,10.7191 16.9757,10.4761 C18.8227,10.2991 20.4207,10.0911 21.7687,9.5821 C22.9927,9.1211 23.8347,8.3751 24.7117,7.7461 C24.7397,7.7281 24.9927,7.4181 25.1147,7.6491 C24.9677,8.0661 24.9107,8.5651 24.7687,8.9871 M26.7897,1.9451 C26.8977,1.9981 26.9107,2.1371 27.0227,2.1921 C28.2997,2.5091 30.5047,2.5221 31.9857,2.3421 C32.2077,2.3011 31.9617,1.8611 32.2137,1.8451 C32.6967,2.0681 33.1947,2.1811 33.6007,2.4421 C34.1587,2.7971 34.4717,3.4921 34.8717,4.0271 C35.1867,4.4521 35.5497,4.8291 35.7937,5.2191 C36.5927,5.6631 37.3037,6.2461 38.3897,6.5571 C40.1867,7.0711 42.5167,6.8761 44.5677,6.9071 C44.8587,6.9081 45.3677,6.7911 45.3757,7.0541 C45.3857,7.2311 45.0987,7.1481 45.0307,7.1541 C44.4697,7.1851 43.9907,7.1331 43.4717,7.1531 C42.0377,7.2091 40.5987,7.1651 39.3157,7.2531 C37.5697,7.3681 36.1587,7.9381 35.3897,8.8391 C34.8177,9.5091 34.5637,10.3031 33.9467,10.8721 C33.4327,11.3521 32.8387,11.7491 31.9857,12.0141 C32.1707,11.4021 31.8917,11.0141 31.4067,10.8721 C30.8507,10.7091 29.8307,10.8371 28.9837,10.9211 C28.0497,11.0151 27.3117,11.2801 26.9617,11.4681 C26.9307,11.6541 26.6787,11.6931 26.5007,11.9151 C26.2157,12.2631 26.3227,12.6131 25.5767,12.4611 C25.7097,12.0311 26.2727,11.5351 26.6157,11.1211 C27.8247,10.5901 29.3177,10.5811 30.6587,10.2291 C31.2807,10.0651 31.9187,9.9051 32.5027,9.6321 C33.0287,9.3881 33.6887,9.0941 34.0617,8.7881 C34.9347,8.0781 35.4327,6.2581 34.8717,4.9201 C34.5477,4.1521 33.6087,3.1871 32.6767,2.9371 C31.1587,2.5271 28.2957,2.9651 26.8467,2.6381 C26.6727,2.3751 26.4167,2.1811 26.3857,1.7951 C26.5007,1.7971 26.6157,1.7961 26.7317,1.7941 C26.7977,1.8041 26.7957,1.8741 26.7897,1.9451 M0.5247,12.5601 C13.6417,12.5591 28.0187,12.5601 41.3367,12.5591 C44.2377,12.5591 47.5167,12.8551 49.6477,12.1111 C50.9947,11.6441 52.2057,10.5221 52.5357,9.0871 C52.7447,8.1711 52.7607,6.8911 52.6497,5.9131 C52.5517,5.0231 52.2467,4.0061 51.7837,3.3331 C51.4577,2.8611 50.6457,2.1271 49.8217,1.8951 C48.7567,1.5921 47.1277,1.6461 45.6067,1.6471 C36.5007,1.6461 27.7647,1.6471 18.5927,1.6481 C17.0987,1.6451 15.5987,1.7461 14.2667,1.6471 C13.1497,1.5641 12.1727,1.2291 11.0317,1.1021 C9.6497,0.9471 8.1437,0.9541 6.5287,1.0511 C5.4557,1.1181 4.3997,1.0801 3.7007,1.2981 C2.5297,1.6661 1.4297,2.7121 0.9857,3.7801 C0.5167,4.9071 0.5237,6.4361 0.5257,7.9961 C0.5257,9.4621 0.5257,11.0391 0.5247,12.5601 L0.5247,12.5601 Z M45.9541,10.7715 C46.6611,10.7155 47.2821,10.6775 47.8021,10.5245 C49.0361,10.1595 49.8471,9.5365 50.2841,8.3925 C50.5111,7.7995 50.6941,7.0355 50.6881,6.4085 C50.6751,5.4165 50.0811,4.0605 49.3601,3.6305 C48.2021,2.9405 47.2161,3.9435 47.1081,4.7715 C47.0521,5.2075 47.1961,5.6435 47.2241,6.0625 C47.2631,6.6225 47.1861,7.2295 47.1081,7.7985 C46.9331,9.0865 46.7061,9.9305 45.9541,10.7715 L45.9541,10.7715 Z M64.1396,4.1309 C63.5436,4.9669 62.6146,5.9029 62.3646,7.1009 C62.1526,8.1169 62.3586,9.4179 62.6236,10.3419 C62.5776,10.4789 62.4286,10.2939 62.4326,10.2969 C61.8746,9.9119 61.2246,9.5899 60.4606,9.2139 C59.8926,8.9329 59.3036,8.7169 59.1246,8.2229 C58.8536,7.4609 59.1486,6.0539 59.8196,5.7459 C60.0286,5.6509 60.3786,5.6629 60.5836,5.6099 C61.9306,5.2689 62.8876,4.6129 64.1396,4.1309 L64.1396,4.1309 Z M67.0073,9.043 C67.2923,9.959 69.4203,10.242 70.6973,10.446 C72.2193,8.482 73.6583,6.459 75.0723,4.42 C74.4413,4.057 73.6113,3.73 72.7183,3.65 C71.3583,3.53 70.7353,4.015 70.1163,4.412 C69.9173,4.539 69.7183,4.653 69.5433,4.771 C69.3863,4.876 68.9493,5.05 69.1623,5.13 C70.6323,5.138 71.6653,5.638 71.7703,6.484 C71.8643,7.249 71.0633,8.036 69.9293,8.103 C68.6663,8.181 68.0603,7.623 67.6393,6.974 C67.2743,7.546 66.7703,8.284 67.0073,9.043 L67.0073,9.043 Z M71.3313,11.076 C68.7053,10.803 66.1753,10.609 65.9913,8.816 C65.9583,8.496 65.9723,7.778 66.1153,7.332 C66.1753,7.14 66.4013,6.91 66.5593,6.658 C67.2633,5.521 68.3703,4.538 69.7953,3.735 C70.6043,3.279 71.1573,2.916 72.7173,3.019 C73.5573,3.076 74.3193,3.338 75.0063,3.607 C75.3773,3.755 76.0413,4.013 76.0893,4.193 C76.1463,4.417 75.7313,4.797 75.5183,5.095 C74.0923,7.107 72.7463,9.132 71.3313,11.076 L71.3313,11.076 Z M108.7041,11.3164 C108.7821,11.8984 108.4671,12.3174 107.9431,12.3954 C106.2631,12.6454 106.0041,10.9264 107.4961,10.8634 C108.1041,10.8374 108.3461,11.0784 108.7041,11.3164 L108.7041,11.3164 Z M134.002,12.4365 C133.812,11.9705 133.41,11.6525 133.11,11.2645 C132.672,11.6715 132.15,12.0215 131.714,12.4325 C132.475,12.4325 133.239,12.4335 134.002,12.4365 L134.002,12.4365 Z M131.332,12.3865 C130.917,12.1105 130.689,11.7025 130.187,11.4845 C129.981,11.8325 129.623,12.0755 129.425,12.4295 C130.041,12.3995 130.824,12.4905 131.332,12.3865 M128.918,12.4285 C128.656,12.1295 128.043,11.6945 127.517,11.4355 C127.215,11.7725 126.87,12.0835 126.566,12.4235 C127.35,12.4255 128.134,12.4265 128.918,12.4285 M126.058,12.3785 C125.657,12.0905 125.296,11.7765 124.849,11.5205 C124.577,11.8245 124.217,12.0635 124.025,12.4205 C124.68,12.3925 125.506,12.4815 126.058,12.3785 M126.366,7.7415 C128.033,7.6955 128.74,6.6405 128.079,5.4935 C128.069,7.2155 124.128,7.3435 124.075,5.6215 C123.371,6.9205 124.814,7.7845 126.366,7.7415 M123.451,12.3745 C122.981,12.0895 122.753,11.6355 122.115,11.4715 C121.92,11.8125 121.574,12.0475 121.416,12.4155 C122.075,12.3855 122.9,12.4775 123.451,12.3745 M122.423,4.0425 C121.465,4.3905 121.248,5.1555 120.707,5.7965 C120.515,6.0275 120.099,6.2345 120.073,6.4725 C120.099,6.5515 120.2,6.5715 120.264,6.6075 C121.223,7.1085 121.352,8.3515 122.303,8.7265 C122.703,8.8835 123.561,8.9665 124.079,8.9985 C126.13,9.1245 129.457,8.9835 129.991,8.1535 C130.474,7.3975 130.195,6.5485 131.259,6.0825 C130.572,5.9325 130.471,5.3515 130.05,4.9555 C129.669,4.6005 129.007,4.4685 128.334,4.3225 C128.008,4.2525 127.589,4.0535 127.316,4.2765 C129.645,4.5425 129.581,7.6195 127.702,8.2395 C125.045,9.1175 121.93,7.4685 123.123,5.2595 C123.474,5.0215 123.789,4.5775 124.074,4.3165 C124.161,4.2405 124.501,4.1155 124.265,4.0465 C123.698,3.9575 123.007,4.0115 122.423,4.0425 M121.038,12.3705 C120.644,12.0645 120.296,11.7215 119.89,11.4235 C119.481,11.7485 119.061,12.0635 118.684,12.4125 C119.447,12.3835 120.379,12.4745 121.038,12.3705 M120.58,4.7165 C120.884,4.3215 121.159,3.9215 121.721,3.6825 C122.459,3.3685 123.657,3.4215 124.899,3.4615 C125.991,3.4985 127.173,3.4445 128.077,3.5555 C129.023,3.6755 129.589,3.9575 130.238,4.1905 C131.046,4.7465 131.303,5.6915 132.466,5.9955 C132.828,6.1005 133.463,6.0115 133.929,6.0425 C133.762,5.2855 133.75,4.3325 133.227,3.7445 C132.902,3.3845 131.893,2.9635 131.127,2.8425 C129.967,2.6575 128.305,2.7025 126.55,2.7005 C124.81,2.6975 123.125,2.6245 121.72,2.6915 C118.789,2.8305 118.283,4.3255 117.785,6.0155 C119.544,6.2935 119.99,5.4845 120.58,4.7165 M118.744,10.0705 C119.202,10.2155 120.191,10.2025 121.032,10.2545 C124.079,10.4455 127.521,10.6165 130.122,10.3595 C130.765,10.2935 131.398,10.2915 131.837,10.1815 C133.685,9.7145 134.009,8.1005 133.991,6.4475 C133.336,6.4765 132.79,6.3865 132.34,6.4905 C131.136,6.7665 131.37,7.9535 130.691,8.6475 C130.443,8.9015 129.964,9.1145 129.61,9.2335 C128.813,9.4955 127.2,9.6355 125.735,9.6315 C123.682,9.6245 121.605,9.4385 120.903,8.6315 C120.511,8.1825 120.376,7.5125 119.886,7.1465 C119.41,6.7945 118.875,6.7155 117.723,6.6925 C117.369,7.8475 117.406,9.6435 118.744,10.0705 M118.174,12.3655 C117.818,11.8245 117.578,11.1965 117.218,10.6535 C116.815,11.2505 116.343,11.7995 115.952,12.4075 C116.672,12.3775 117.562,12.4705 118.174,12.3655 M113.657,8.3505 C113.354,9.0415 113.03,9.8755 113.089,10.5565 C113.175,11.5405 114.111,12.1205 115.381,12.3605 C115.389,11.9765 114.817,11.6955 114.743,11.2815 C114.648,10.7715 115.122,10.0485 115.311,9.3895 C115.805,7.6835 116.188,6.1585 116.638,4.5745 C116.732,4.2415 116.774,3.8525 116.892,3.5825 C117.057,3.1995 117.573,2.8055 117.905,2.5965 C118.03,2.5155 118.455,2.3685 118.224,2.3265 C117.473,2.3335 116.81,2.4015 116.315,2.5935 C115.479,4.3695 114.465,6.5195 113.657,8.3505 M103.746,11.3085 C104.155,11.1015 104.657,10.7325 105.144,10.4115 C105.589,10.1145 106.142,9.7375 106.478,9.4225 C106.781,9.1325 107.047,8.7095 107.364,8.3425 C107.675,7.9835 107.989,7.6325 108.253,7.2615 C108.746,6.5735 109.336,5.3325 110.093,5.1065 C110.707,4.9185 112.053,4.9085 112.508,5.2885 C112.341,6.5015 111.095,8.4215 111.245,10.0145 C111.38,11.4585 112.292,12.4825 114.364,12.3605 C113.101,11.9655 112.145,11.2675 112.008,10.1965 C111.907,9.4015 112.251,8.5115 112.513,7.7635 C112.892,6.6895 113.72,5.7735 113.271,4.5245 C112.368,4.1765 110.805,4.1345 109.901,4.4285 C109.408,4.5895 108.728,5.0915 108.378,5.4155 C108.097,5.6755 107.876,6.0155 107.616,6.3165 C107.357,6.6145 107.094,6.9165 106.856,7.2145 C105.389,9.0425 103.185,10.6965 101.397,12.1165 C101.358,12.1195 101.322,12.1205 101.334,12.1595 C102.168,11.8535 103.066,11.6495 103.746,11.3085 M96.299,3.8215 C96.157,4.2455 97.708,4.4185 98.398,4.4555 C99.862,4.5375 100.721,4.2325 101.319,3.7845 C101.447,3.6905 101.757,3.4895 101.825,3.4255 C102.013,3.2605 102.122,3.0155 102.272,2.8395 C102.458,2.6225 102.701,2.4175 102.717,2.2115 C101.001,2.2075 99.283,2.2055 97.568,2.2045 C97.176,2.6875 96.479,3.2895 96.299,3.8215 M95.857,5.1275 C95.359,5.1615 94.621,5.8205 95.032,6.0725 C95.667,6.1745 96.467,6.2545 97.192,6.2555 C97.7,6.2575 98.357,6.2625 98.782,6.1675 C99.08,6.0985 99.382,5.8665 99.608,5.7185 C99.894,5.5315 100.192,5.3335 100.241,5.0875 C99.262,5.0475 96.997,5.0495 95.857,5.1275 M93.311,2.6455 C93.071,2.7645 92.284,3.3175 92.167,3.4565 C91.686,4.0245 91.135,4.9325 90.71,5.6145 C90.515,5.9255 90.285,6.2095 90.267,6.3785 C90.206,6.8695 90.659,7.2905 91.028,7.4155 C91.673,7.6325 93.633,7.6095 94.906,7.5565 C95.612,7.5275 95.892,7.4105 96.305,7.2435 C96.565,7.1375 96.902,7.0685 96.878,6.8375 C95.118,6.8605 93.027,6.7765 92.934,5.8435 C92.9,5.5215 93.24,5.1525 93.505,4.8535 C94.28,3.9725 95.206,2.9225 95.787,2.1555 C94.964,2.2505 93.95,2.3285 93.311,2.6455 M85.684,3.4455 C85.338,3.5085 84.914,3.4875 84.604,3.5785 C83.771,3.8205 83.394,4.4555 82.954,5.0615 C82.729,5.3745 82.126,6.1135 82.319,6.2755 C82.82,6.6975 83.822,7.0595 84.165,7.6755 C84.714,6.7365 85.472,5.9435 86.26,5.1565 C86.845,4.5735 87.37,3.9185 87.974,3.4045 C88.189,3.2185 88.529,3.0795 88.606,2.8185 C87.592,2.9805 86.607,3.2765 85.684,3.4455 M80.8,8.6615 C80.259,8.7355 79.808,8.7215 79.526,8.8825 C79.196,9.0755 78.121,10.5215 78.515,10.7735 C79.166,11.1925 80.285,11.7495 81.058,12.1265 C81.876,10.8035 82.808,9.5585 83.594,8.2145 C82.82,8.2665 81.743,8.5305 80.8,8.6615 M72.91,2.4785 C71.22,2.3765 70.297,2.7005 69.287,3.1495 C67.837,3.7925 66.892,4.6195 65.985,5.6655 C65.067,6.7255 64.372,7.6845 64.528,9.0855 C64.672,10.3755 65.593,11.2015 67.139,11.5645 C68.008,11.7715 69.538,11.9545 70.698,11.8875 C72.272,11.7935 72.6,10.9975 73.173,10.0875 C74.568,7.8785 76.064,5.9985 77.486,3.9715 C76.422,3.0935 74.957,2.6025 72.91,2.4785 M62.677,3.9045 C62.088,4.0935 61.456,4.3495 60.835,4.5305 C60.138,4.7365 59.421,4.8925 58.993,5.2035 C58.286,5.7165 57.908,7.8395 58.426,8.7135 C58.605,9.0135 59.191,9.3305 59.698,9.5725 C61.141,10.2575 62.712,10.7745 63.96,11.4705 C63.996,11.4895 64.094,11.7115 64.216,11.5595 C63.956,10.9615 63.342,10.3425 63.132,9.6235 C62.906,8.8545 62.808,7.6735 63,6.9215 C63.333,5.6155 64.46,4.4825 65.156,3.5475 C65.46,3.3405 65.917,3.0135 66.172,2.7855 C66.214,2.7455 66.528,2.5815 66.3,2.5595 C65.089,2.8965 63.989,3.4805 62.677,3.9045 M59.18,2.8175 C57.423,2.9425 56.331,3.1155 55.306,3.8485 C54.473,4.4425 54.266,5.0825 54.163,6.2775 C54.113,6.8855 54.021,7.5915 54.105,8.0795 C54.229,8.8115 54.194,9.9845 54.553,10.5545 C55.01,11.2835 56.281,11.4155 57.541,11.5945 C59.722,11.9035 62.065,11.8525 64.343,12.0115 C64.039,11.7095 63.484,11.5835 63.008,11.4235 C62.567,11.2755 62.085,11.0585 61.545,10.9265 C61.164,10.8325 60.588,10.7865 60.083,10.6995 C59.587,10.6135 59.085,10.4795 58.683,10.4265 C57.753,10.3055 56.987,10.3495 56.395,10.0615 C55.508,9.6315 55.309,7.9595 55.438,6.9105 C55.576,5.7685 56.064,4.8915 57.085,4.4365 C58.225,3.9275 60.009,3.8105 61.534,3.4975 C62.932,3.2075 64.218,2.8285 65.281,2.5575 C63.023,2.6585 61.243,2.6725 59.18,2.8175 M83.53,7.5385 C82.616,6.9855 80.365,6.8795 79.906,6.0945 C79.627,5.6135 79.929,5.2315 80.156,4.8765 C80.571,4.2395 81.29,3.3725 81.998,3.0345 C82.687,2.7065 83.454,2.8085 84.413,2.8585 C85.68,2.9235 87.071,2.7465 88.099,2.6375 C88.462,2.6005 88.982,2.6675 89.178,2.4145 C87.1,2.4525 84.232,1.9215 82.188,2.2245 C80.638,2.4525 80.423,2.6385 79.774,3.5715 C79.538,3.9095 79.207,4.2485 79.012,4.5155 C77.82,6.1615 76.605,7.8955 75.461,9.4165 C75.021,10.0035 74.415,10.5295 74.512,11.3975 C74.587,12.0925 75.188,12.2845 76.039,12.3455 C77.507,12.4475 79.278,12.3115 80.867,12.3075 C80.111,12.1325 79.315,11.9325 78.326,11.7625 C77.543,11.6265 76.319,11.5345 76.036,11.0395 C75.789,10.6085 76.124,10.2735 76.352,9.9595 C76.555,9.6795 76.743,9.4065 76.922,9.1505 C77.252,8.6775 77.647,7.9275 78.381,7.7105 C79.263,7.4525 80.314,7.7035 81.242,7.8065 C81.712,7.8575 82.194,7.9045 82.641,7.9425 C83.072,7.9805 83.64,8.0715 83.977,7.8085 C83.61,7.6555 83.754,7.6735 83.53,7.5385 M134.257,12.7065 C127.735,12.6955 121.213,12.6855 114.553,12.6755 C113.588,12.6745 112.555,12.7505 111.886,12.5815 C111.245,12.4185 110.882,11.9955 110.42,11.5445 C109.717,10.8535 109.148,10.2195 107.496,10.5495 C106.44,10.7595 105.637,11.4885 104.513,11.8955 C104.21,12.0015 103.805,12.0685 103.431,12.1615 C102.271,12.4535 100.938,12.6305 99.047,12.5595 C99.231,12.3955 99.546,12.3505 99.809,12.2485 C101.101,11.7385 101.955,10.5625 102.854,9.6845 C103.65,8.9085 104.398,8.1365 105.074,7.3915 C106.547,5.7745 108.064,4.1225 108.372,1.9955 C107.926,1.8895 107.207,1.9785 106.656,1.9495 C106.268,3.0785 105.664,4.0935 105.007,5.1425 C104.989,5.1715 104.894,5.1245 104.882,5.1855 C104.868,5.2555 104.756,5.5565 104.63,5.7255 C104.016,6.5425 103.239,7.3475 102.535,8.1565 C101.877,8.9075 101.176,9.6575 100.379,10.5385 C99.871,11.0935 99.262,11.6455 98.474,12.1105 C98.169,12.2895 97.893,12.4795 97.71,12.5145 C96.902,12.6585 95.211,12.5085 94.28,12.5085 C90.927,12.5015 87.426,12.4975 84.045,12.4915 C84.239,11.3375 84.786,10.4815 85.949,9.9295 C86.728,9.5585 87.182,9.4635 88.491,9.3915 C90.741,9.2715 93.613,9.3555 95.988,9.2255 C96.983,9.1695 97.968,9.1645 98.723,8.9595 C99.634,8.7125 100.266,8.1335 101.008,7.5665 C101.737,7.0085 102.334,6.3945 102.849,5.8585 C103.406,5.2785 104.023,4.6865 104.499,4.0145 C104.971,3.3475 105.363,2.6575 105.83,1.9905 C105.409,1.9685 105.113,1.8655 104.812,1.9445 C104.586,2.0035 104.186,2.6205 103.925,3.0245 C103.329,3.9415 102.934,4.4405 102.212,5.1835 C101.878,5.5265 101.59,5.8905 101.259,6.1715 C100.912,6.4665 100.355,6.7215 99.928,7.0245 C99.058,7.6395 98.576,8.0035 97.387,8.3265 C96.06,8.6865 93.575,8.6055 91.603,8.5865 C90.294,8.5755 88.094,8.6705 87.852,7.9055 C87.728,7.5165 88.141,6.9595 88.422,6.5555 C88.724,6.1225 89.041,5.7885 89.312,5.4765 C89.994,4.6945 90.5,3.8925 91.15,3.3175 C91.801,2.7445 92.679,2.4595 93.691,2.1075 C92.943,2.1035 92.113,2.1885 91.593,2.4175 C91.431,2.4905 91.386,2.5615 91.213,2.6875 C90.488,3.2225 89.498,3.9585 88.864,4.5745 C87.204,6.1935 85.769,7.8105 84.423,9.6115 C83.735,10.5305 82.972,11.4275 82.712,12.4905 C76.152,12.3465 69.242,12.6465 62.564,12.4585 C61.538,12.4305 60.489,12.3265 59.449,12.2735 C58.39,12.2195 57.286,12.2575 56.335,12.1325 C54.924,11.9505 53.826,11.5245 53.281,10.5985 C53.124,10.3295 52.984,9.9235 52.837,9.5165 C52.48,8.5325 52.113,6.9605 52.321,5.5535 C52.361,5.2715 52.524,4.9195 52.638,4.6085 C52.752,4.2925 52.813,3.9485 52.952,3.7075 C53.303,3.1115 54.18,2.5095 54.858,2.2705 C55.392,2.0825 56.287,1.9575 57.081,1.8235 C60.17,1.2975 64.526,1.5675 68.393,1.5725 C87.148,1.6015 106.885,1.6315 125.913,1.6625 C128.483,1.6665 131.112,1.6345 132.777,2.2595 C133.755,2.6235 135.243,3.6265 135.64,4.1525 C136.458,5.2375 136.202,7.3835 135.903,8.7475 C135.765,9.3845 135.614,9.9145 135.334,10.4575 C135.052,10.9975 134.744,11.4825 134.51,11.9875 C134.447,12.1245 134.316,12.4075 134.257,12.7065 L134.257,12.7065 Z M246.1499,10.2778 C245.6059,11.1118 244.6379,11.5288 243.5579,11.8048 C244.9509,11.8468 246.3069,11.8138 247.0989,11.2638 C247.7499,10.8108 248.4319,9.5878 248.5529,8.6028 C248.6469,7.8518 248.5609,6.9068 248.4879,6.1418 C248.3519,4.6548 247.5029,3.6878 245.9599,3.6318 C247.6879,4.8908 247.1499,8.7388 246.1499,10.2778 L246.1499,10.2778 Z M229.3919,3.9748 C228.3159,4.2228 227.2429,4.4868 226.5469,4.9108 C225.9279,5.2868 225.6629,5.8608 225.2179,6.3368 C224.7059,6.8878 224.2109,7.4858 223.4459,7.8158 C222.4239,8.2588 220.7009,8.2968 219.3379,8.4558 C218.9969,8.4968 218.5719,8.5108 218.4499,8.6538 C220.9309,8.8848 223.3399,8.3938 224.6489,9.3918 C224.9499,9.6208 225.1289,9.9788 225.4059,10.2288 C226.1239,10.8748 226.9209,11.1098 228.3169,11.1638 C229.6019,11.2138 231.0889,11.1278 232.5539,11.1648 C232.2189,10.7918 231.5609,10.6068 231.1619,10.1798 C230.8299,9.8228 230.5079,9.0968 230.4049,8.5538 C230.1439,7.2108 230.5049,5.3898 231.4169,4.6148 C231.6019,4.4558 231.8749,4.3218 232.0489,4.2218 C232.1979,4.1318 232.5859,4.0938 232.5529,3.8278 C231.4789,4.2178 230.3919,4.7228 229.7059,5.4038 C228.6519,6.4498 228.4489,8.8878 229.7059,9.9818 C230.2179,10.4268 230.9089,10.6098 231.5429,10.9678 C230.6069,10.9898 229.7509,10.9008 228.8849,10.8208 C228.1749,10.7538 227.0049,10.6098 226.6099,10.3768 C225.9819,10.0068 225.8399,9.0828 225.8489,8.3578 C225.8669,7.0318 226.4549,6.0468 227.3669,5.5018 C228.7549,4.6738 230.9639,4.3538 232.3629,3.5788 C231.2129,3.6388 230.2719,3.7718 229.3919,3.9748 M241.7859,2.9408 C240.0329,2.9418 238.5319,3.1288 237.2329,3.3818 C235.6709,3.6918 234.3179,4.2248 233.6919,5.1548 C233.4879,5.4588 233.2529,6.0868 233.1839,6.3388 C232.9429,7.2738 232.8139,8.3658 233.1219,9.1948 C233.2239,9.4648 233.6449,10.0808 233.8199,10.2278 C234.7549,11.0278 237.8859,11.2318 239.7629,11.3118 C241.3759,11.3818 243.2079,11.2968 244.0629,10.8198 C244.8059,10.4038 244.9549,9.7728 245.1369,8.8498 C245.4219,7.4208 245.7789,4.7318 244.8859,3.6798 C244.3529,3.0528 242.8449,2.9268 241.9129,2.9418 C241.8719,2.9418 241.8279,2.9398 241.7859,2.9408 M231.6699,2.7918 C228.7819,3.0768 225.8569,3.1958 223.1929,3.6788 C221.8899,3.9178 220.3669,4.0928 219.4659,4.5178 C218.6249,4.9078 217.7509,5.7978 217.3769,6.6838 C217.1499,7.2208 217.0389,8.0358 216.9979,8.6528 C216.9669,9.1098 216.9829,10.2328 217.2509,10.7218 C217.9829,12.0638 220.8479,12.0018 223.3209,12.0018 C226.7449,12.0008 230.3769,12.0488 233.6919,12.0018 C233.9249,11.9998 234.3239,12.0898 234.5149,11.9028 C233.6929,11.5108 232.4879,11.5988 231.0989,11.5598 C227.6599,11.4598 224.1459,11.5698 221.1699,11.3618 C220.4169,11.3098 219.5489,11.3148 219.0839,11.1658 C217.7509,10.7348 217.9139,8.6688 218.1979,7.4708 C218.2679,7.1768 218.2499,6.8698 218.3239,6.6838 C218.4969,6.2498 219.0909,5.4858 219.4639,5.2558 C220.3359,4.7168 222.0229,4.4758 223.4479,4.2698 C224.8999,4.0608 226.5399,3.8428 227.8729,3.6308 C230.6659,3.1858 233.7079,3.0458 236.5369,2.6938 C236.6889,2.6748 236.9779,2.6948 237.0439,2.5478 C235.3179,2.5118 233.5189,2.6118 231.6699,2.7918 M248.6799,4.7128 C248.6839,3.9198 248.6969,3.1248 248.4259,2.5468 C247.8439,2.1778 246.6979,1.9878 245.6439,2.1528 C247.2009,2.5818 248.2869,3.3768 248.6799,4.7128 M192.6509,1.6618 C211.6239,1.6608 230.5929,1.6608 249.5629,1.6618 C249.1669,4.8588 250.4609,9.1878 248.6149,11.2628 C248.3499,11.5588 247.4339,12.2468 246.9089,12.3978 C246.4399,12.5288 245.4169,12.5288 244.6949,12.4968 C243.2399,12.4188 241.5639,12.0848 240.3329,12.0488 C238.6559,12.0058 236.8309,12.1798 234.9539,12.2498 C231.3939,12.3758 227.6299,12.3198 223.9539,12.4468 C223.0459,12.4758 222.0369,12.4108 221.1069,12.4448 C219.3729,12.5088 217.8159,12.5008 216.8709,11.9048 C216.4799,11.6578 216.3709,11.2208 216.0479,10.9188 C215.7779,10.6648 215.3559,10.3648 214.9739,10.2268 C213.6109,9.7498 211.4109,9.9568 209.8509,9.8368 C209.9439,8.9888 210.1629,8.2398 210.1039,7.2738 C213.1829,7.4368 215.7389,8.0048 215.9869,10.3778 C215.8899,9.4208 216.4099,8.5568 216.2379,7.8168 C216.1069,7.2498 215.0039,6.5988 214.4039,6.2408 C213.3659,5.6168 211.4129,5.0928 209.7879,4.9088 C209.4979,4.7218 209.3999,4.4378 209.1559,4.2218 C208.5539,3.6878 207.4999,3.2318 206.8789,2.7918 C211.2049,3.2988 215.9149,3.5068 216.4289,6.9778 C216.9379,5.1268 217.6689,3.4468 218.6419,1.9558 C218.1979,1.9568 217.7559,1.9558 217.3129,1.9568 C216.7519,2.4238 216.4099,3.0588 216.0479,3.6788 C214.6349,3.4208 213.1139,2.8318 211.3059,2.5958 C209.6679,2.3828 207.7509,2.3278 205.8689,2.2008 C204.9379,2.1398 203.9689,2.1358 203.0229,2.1038 C202.0759,2.0718 201.1359,1.9328 200.3019,1.9568 C199.5819,1.9778 198.6429,2.1218 197.8379,2.2508 C196.3589,2.4898 195.0559,2.8398 193.9799,3.3348 C193.4319,3.5858 193.1129,3.9928 192.5889,4.1728 C192.5879,3.3838 192.5879,2.5968 192.5889,1.8058 C192.5829,1.7388 192.5779,1.6688 192.6509,1.6618 L192.6509,1.6618 Z M196.8257,3.9258 C196.2387,4.1958 195.6997,4.6448 195.3697,5.0598 C194.5007,6.1498 194.1267,9.0708 195.3087,10.1308 C195.9077,10.6708 197.3487,10.9888 198.4687,11.1158 C199.3427,11.2158 200.5397,11.2398 201.6297,11.2138 C202.7427,11.1868 203.8907,11.2148 204.8547,11.1168 C205.2757,11.0708 206.0977,10.9258 206.3737,10.8208 C206.6067,10.7298 207.1387,10.3518 207.2597,10.2288 C207.5817,9.8948 207.7637,9.2568 207.8897,8.8018 C208.3227,7.2528 208.3067,5.4608 207.2597,4.5658 C207.1027,4.4318 206.8027,4.2768 206.5017,4.1238 C206.2417,3.9908 205.9447,3.8168 205.6777,3.7268 C204.3637,3.2998 201.9187,3.2318 200.3657,3.3348 C198.8627,3.4358 197.7447,3.5048 196.8257,3.9258 L196.8257,3.9258 Z M200.4927,2.5978 C202.2397,2.4898 204.9067,2.6768 206.2477,3.0888 C207.2287,3.3908 208.2577,4.0648 208.7147,4.7628 C209.5937,6.1178 209.2997,8.1338 208.8387,9.4908 C208.6727,9.9878 208.5417,10.4618 208.2727,10.8198 C207.6857,11.5878 205.7367,12.5198 204.2247,12.6408 C202.7077,12.7648 201.0137,12.6408 199.2897,12.6428 C196.6797,12.6428 194.7817,12.6208 193.6627,11.5588 C193.3727,11.2828 192.9897,10.9148 192.8407,10.5738 C192.6377,10.1018 192.6197,9.2908 192.5887,8.5048 C192.5257,7.0088 192.6657,5.7218 193.3477,4.8608 C194.4307,3.4918 197.1977,2.6788 200.3667,2.5968 C200.4087,2.5948 200.4507,2.5988 200.4927,2.5978 L200.4927,2.5978 Z M240.9634,7.7158 C240.9054,6.7128 241.0214,5.5428 240.9014,4.9108 C240.8574,4.6858 240.5774,4.2578 240.5214,4.2238 C239.9744,3.8798 237.9204,4.0248 236.9804,4.2708 C236.5254,4.3908 235.8054,4.6968 235.6514,4.8618 C235.4804,5.0438 235.4084,5.4618 235.4614,5.6498 C236.5434,4.8558 238.1744,5.5788 238.5594,6.2418 C239.2194,7.3688 237.9514,8.8588 236.0934,8.4558 C235.9024,8.4138 235.7594,8.2948 235.5884,8.2088 C235.4434,8.1388 235.1614,7.9078 235.1464,8.0618 C235.0264,8.7948 234.9894,9.4648 235.5254,9.7868 C235.9344,10.0338 236.8514,10.0468 237.6114,10.1308 C238.4354,10.2218 239.2644,10.3018 239.9524,10.2768 C241.0304,9.9168 241.0274,8.8488 240.9634,7.7158 L240.9634,7.7158 Z M240.7744,3.3838 C241.7084,3.3378 242.9654,3.2648 243.4934,3.7288 C243.9784,4.1498 243.9874,5.3088 243.9374,6.1418 C243.8844,6.9608 243.9084,8.0238 243.7464,8.7538 C243.6884,9.0088 243.5204,9.2438 243.4304,9.4918 C243.3254,9.7738 243.3354,10.0288 243.1764,10.2288 C243.0054,10.4458 242.4764,10.8038 242.2294,10.8698 C241.9564,10.9388 241.2134,10.9708 240.7744,10.9678 C239.3734,10.9588 237.4384,10.6808 235.9694,10.4268 C234.8324,10.2288 234.3054,9.9508 234.1984,8.9498 C234.1324,8.3328 234.3354,7.7348 234.4494,6.9298 C234.5544,6.1998 234.5314,5.2268 234.8914,4.7628 C235.1504,4.4338 235.6794,4.1688 236.3474,3.9748 C237.5854,3.6148 239.0124,3.4718 240.7744,3.3838 L240.7744,3.3838 Z M196.7617,8.1592 C198.7317,9.0702 202.6647,9.0292 205.3617,8.6532 C205.3777,6.8202 205.0737,5.2302 202.5157,5.4042 C203.8247,6.3772 202.8527,8.3862 200.8077,8.2112 C199.2867,8.0792 198.4867,6.4892 199.5427,5.5502 C199.6207,5.4802 200.0297,5.3722 199.7967,5.3032 C197.4297,5.2022 196.8837,6.5152 196.7617,8.1592 L196.7617,8.1592 Z M206.4377,9.2922 C203.1687,9.9942 198.2027,9.8832 195.5607,8.8502 C195.6377,7.6572 195.9307,6.7482 196.4457,5.8972 C197.0667,4.8672 198.4537,4.3812 200.6807,4.4672 C201.2777,4.4922 201.9447,4.5682 202.5797,4.6162 C203.2697,4.6672 203.9937,4.6702 204.4147,4.7642 C204.9267,4.8772 205.8807,5.3842 206.0567,5.7472 C206.1797,5.9972 206.2167,6.3792 206.2477,6.6332 C206.3377,7.4312 206.3607,8.3092 206.4377,9.2922 L206.4377,9.2922 Z M216.2373,12.6426 C213.5813,12.6426 210.9273,12.6426 208.2693,12.6416 C208.0223,12.5736 208.3933,12.4486 208.3983,12.4446 C208.6723,12.2426 208.9373,12.0286 209.2203,11.7546 C209.6853,11.3056 210.1233,10.6886 210.9273,10.5726 C212.1383,10.4016 213.9973,10.5596 214.6583,10.9666 C214.8053,11.0586 214.8863,11.2336 215.0363,11.3626 C215.1793,11.4806 215.3823,11.5566 215.4813,11.6566 C215.7963,11.9856 215.8873,12.4256 216.2373,12.6426 L216.2373,12.6426 Z M320.5645,4.1245 C321.1545,4.9595 322.0725,5.8975 322.3225,7.0915 C322.5335,8.1055 322.3345,9.4055 322.0725,10.3285 C322.1175,10.4645 322.2635,10.2795 322.2595,10.2825 C322.8105,9.9015 323.4515,9.5765 324.2055,9.2045 C324.7675,8.9255 325.3515,8.7095 325.5255,8.2155 C325.7915,7.4585 325.4965,6.0515 324.8345,5.7445 C324.6285,5.6485 324.2835,5.6615 324.0805,5.6095 C322.7485,5.2625 321.8005,4.6075 320.5645,4.1245 L320.5645,4.1245 Z M317.7383,9.0244 C317.4593,9.9384 315.3593,10.2164 314.0973,10.4184 C312.5923,8.4564 311.1663,6.4354 309.7673,4.3934 C310.3883,4.0344 311.2073,3.7064 312.0903,3.6304 C313.4313,3.5144 314.0503,3.9964 314.6623,4.3954 C314.8593,4.5204 315.0563,4.6374 315.2283,4.7534 C315.3833,4.8604 315.8163,5.0334 315.6053,5.1144 C314.1523,5.1184 313.1333,5.6184 313.0313,6.4614 C312.9393,7.2254 313.7343,8.0104 314.8513,8.0814 C316.0993,8.1584 316.6953,7.6054 317.1133,6.9554 C317.4743,7.5284 317.9723,8.2674 317.7383,9.0244 L317.7383,9.0244 Z M313.4703,11.0484 C316.0663,10.7794 318.5623,10.5894 318.7443,8.7994 C318.7773,8.4794 318.7593,7.7624 318.6193,7.3164 C318.5583,7.1244 318.3363,6.8954 318.1773,6.6424 C317.4823,5.5064 316.3843,4.5224 314.9763,3.7214 C314.1773,3.2654 313.6313,2.8994 312.0883,3.0024 C311.2593,3.0574 310.5093,3.3164 309.8303,3.5864 C309.4613,3.7314 308.8083,3.9884 308.7613,4.1704 C308.7053,4.3914 309.1173,4.7714 309.3283,5.0684 C310.7403,7.0804 312.0723,9.1034 313.4703,11.0484 L313.4703,11.0484 Z M276.5557,11.2285 C276.4797,11.8105 276.7927,12.2275 277.3097,12.3075 C278.9707,12.5585 279.2237,10.8435 277.7487,10.7785 C277.1507,10.7515 276.9097,10.9915 276.5557,11.2285 L276.5557,11.2285 Z M251.5713,12.3076 C251.7583,11.8416 252.1523,11.5246 252.4483,11.1376 C252.8823,11.5466 253.3973,11.8976 253.8303,12.3076 C253.0773,12.3066 252.3243,12.3056 251.5713,12.3076 L251.5713,12.3076 Z M254.2073,12.2596 C254.6153,11.9866 254.8423,11.5786 255.3363,11.3626 C255.5403,11.7106 255.8933,11.9526 256.0913,12.3066 C255.4823,12.2776 254.7083,12.3666 254.2073,12.2596 M256.5923,12.3056 C256.8493,12.0096 257.4553,11.5766 257.9733,11.3176 C258.2753,11.6566 258.6133,11.9666 258.9153,12.3056 C258.1413,12.3056 257.3663,12.3066 256.5923,12.3056 M259.4193,12.2606 C259.8113,11.9746 260.1723,11.6606 260.6093,11.4086 C260.8783,11.7106 261.2343,11.9506 261.4253,12.3056 C260.7783,12.2756 259.9623,12.3666 259.4193,12.2606 M259.1043,7.6306 C257.4593,7.5826 256.7593,6.5296 257.4073,5.3826 C257.4213,7.1036 261.3143,7.2366 261.3643,5.5166 C262.0623,6.8166 260.6383,7.6766 259.1043,7.6306 M261.9913,12.2606 C262.4553,11.9786 262.6793,11.5246 263.3103,11.3636 C263.5033,11.7046 263.8463,11.9376 264.0013,12.3056 C263.3523,12.2766 262.5363,12.3656 261.9913,12.2606 M262.9963,3.9456 C263.9413,4.2936 264.1563,5.0576 264.6913,5.6996 C264.8823,5.9276 265.2923,6.1356 265.3183,6.3726 C265.2943,6.4526 265.1953,6.4726 265.1293,6.5076 C264.1813,7.0086 264.0583,8.2476 263.1223,8.6206 C262.7243,8.7796 261.8803,8.8576 261.3623,8.8906 C259.3403,9.0106 256.0533,8.8666 255.5263,8.0366 C255.0463,7.2806 255.3203,6.4346 254.2693,5.9686 C254.9483,5.8176 255.0493,5.2396 255.4613,4.8436 C255.8373,4.4896 256.4913,4.3606 257.1593,4.2146 C257.4773,4.1446 257.8893,3.9486 258.1613,4.1686 C255.8623,4.4336 255.9303,7.5036 257.7853,8.1266 C260.4123,9.0076 263.4833,7.3646 262.3063,5.1606 C261.9583,4.9206 261.6463,4.4756 261.3633,4.2146 C261.2783,4.1386 260.9413,4.0126 261.1753,3.9456 C261.7323,3.8556 262.4173,3.9136 262.9963,3.9456 M264.3763,12.2616 C264.7653,11.9566 265.1063,11.6156 265.5063,11.3166 C265.9123,11.6426 266.3303,11.9576 266.6993,12.3056 C265.9473,12.2776 265.0243,12.3666 264.3763,12.2616 M264.8163,4.6186 C264.5163,4.2266 264.2423,3.8276 263.6873,3.5856 C262.9553,3.2686 261.7733,3.3236 260.5483,3.3606 C259.4693,3.3946 258.3013,3.3396 257.4093,3.4506 C256.4783,3.5666 255.9143,3.8466 255.2743,4.0796 C254.4763,4.6326 254.2243,5.5776 253.0763,5.8776 C252.7193,5.9826 252.0923,5.8936 251.6323,5.9216 C251.7963,5.1666 251.8053,4.2156 252.3233,3.6306 C252.6413,3.2716 253.6393,2.8526 254.3953,2.7326 C255.5403,2.5486 257.1813,2.5956 258.9173,2.5976 C260.6333,2.5966 262.3003,2.5286 263.6873,2.5976 C266.5843,2.7376 267.0833,4.2336 267.5793,5.9236 C265.8403,6.1976 265.4013,5.3876 264.8163,4.6186 M266.6373,9.9686 C266.1833,10.1126 265.2093,10.0966 264.3773,10.1496 C261.3693,10.3326 257.9693,10.4996 255.3993,10.2386 C254.7623,10.1736 254.1363,10.1696 253.7053,10.0576 C251.8803,9.5876 251.5563,7.9766 251.5703,6.3286 C252.2173,6.3576 252.7573,6.2686 253.2013,6.3716 C254.3903,6.6516 254.1633,7.8346 254.8353,8.5306 C255.0803,8.7856 255.5533,8.9986 255.9033,9.1166 C256.6923,9.3786 258.2833,9.5206 259.7303,9.5176 C261.7593,9.5156 263.8113,9.3336 264.5003,8.5306 C264.8893,8.0826 265.0213,7.4126 265.5073,7.0476 C265.9753,6.6956 266.5033,6.6196 267.6413,6.5956 C267.9923,7.7506 267.9613,9.5456 266.6373,9.9686 M267.2003,12.2616 C267.5573,11.7216 267.7913,11.0946 268.1423,10.5536 C268.5463,11.1496 269.0123,11.6996 269.3993,12.3076 C268.6853,12.2776 267.8093,12.3666 267.2003,12.2616 M271.6603,8.2616 C271.9593,8.9476 272.2823,9.7816 272.2243,10.4636 C272.1403,11.4446 271.2173,12.0206 269.9633,12.2626 C269.9543,11.8776 270.5163,11.5966 270.5923,11.1826 C270.6843,10.6766 270.2153,9.9516 270.0263,9.2936 C269.5383,7.5896 269.1563,6.0666 268.7113,4.4846 C268.6143,4.1516 268.5703,3.7656 268.4583,3.4946 C268.2963,3.1106 267.7853,2.7166 267.4513,2.5056 C267.3313,2.4296 266.9123,2.2786 267.1393,2.2366 C267.8793,2.2456 268.5363,2.3146 269.0213,2.5056 C269.8563,4.2796 270.8573,6.4306 271.6603,8.2616 M281.4533,11.2266 C281.0483,11.0236 280.5533,10.6516 280.0723,10.3286 C279.6313,10.0346 279.0843,9.6546 278.7533,9.3396 C278.4503,9.0496 278.1893,8.6296 277.8743,8.2616 C277.5673,7.9026 277.2583,7.5506 276.9973,7.1816 C276.5093,6.4936 275.9233,5.2536 275.1753,5.0236 C274.5673,4.8376 273.2373,4.8236 272.7893,5.2036 C272.9573,6.4146 274.1893,8.3336 274.0453,9.9236 C273.9133,11.3676 273.0143,12.3856 270.9673,12.2636 C272.2143,11.8696 273.1593,11.1726 273.2913,10.1026 C273.3893,9.3106 273.0503,8.4226 272.7923,7.6776 C272.4153,6.6036 271.5933,5.6846 272.0363,4.4396 C272.9253,4.0926 274.4693,4.0546 275.3643,4.3496 C275.8513,4.5116 276.5233,5.0136 276.8703,5.3386 C277.1463,5.5986 277.3653,5.9366 277.6233,6.2366 C277.8803,6.5356 278.1403,6.8386 278.3773,7.1376 C279.8273,8.9646 282.0083,10.6166 283.7753,12.0366 C283.8133,12.0396 283.8493,12.0426 283.8373,12.0816 C283.0133,11.7746 282.1263,11.5696 281.4533,11.2266 M288.7993,3.7656 C288.9393,4.1896 287.4063,4.3576 286.7273,4.3936 C285.2803,4.4726 284.4323,4.1676 283.8383,3.7196 C283.7123,3.6246 283.4063,3.4246 283.3353,3.3606 C283.1533,3.1956 283.0443,2.9506 282.8963,2.7776 C282.7133,2.5566 282.4393,2.1456 282.4263,1.9396 C283.4103,1.8986 284.9703,1.9396 287.3653,1.9386 C287.7523,2.4206 288.6213,3.2326 288.7993,3.7656 M289.2363,5.0696 C289.7283,5.1036 290.4593,5.7636 290.0543,6.0136 C289.4243,6.1126 288.6363,6.1956 287.9203,6.1916 C287.4183,6.1926 286.7673,6.1996 286.3493,6.1026 C286.0553,6.0346 285.7563,5.8036 285.5343,5.6546 C285.2513,5.4656 284.9553,5.2716 284.9053,5.0246 C285.8743,4.9856 288.1093,4.9916 289.2363,5.0696 M291.7503,2.5966 C291.9843,2.7146 292.7633,3.2676 292.8793,3.4056 C293.3553,3.9726 293.9003,4.8836 294.3223,5.5646 C294.5133,5.8756 294.7423,6.1596 294.7613,6.3286 C294.8223,6.8186 294.3733,7.2386 294.0093,7.3606 C293.3733,7.5766 291.4373,7.5526 290.1793,7.4966 C289.4823,7.4656 289.2093,7.3476 288.7973,7.1806 C288.5393,7.0756 288.2093,7.0056 288.2323,6.7766 C289.9673,6.8016 292.0373,6.7226 292.1253,5.7876 C292.1563,5.4656 291.8223,5.0986 291.5583,4.7986 C290.7913,3.9176 289.8753,2.8696 289.2993,2.1016 C290.1153,2.2026 291.1173,2.2786 291.7503,2.5966 M299.2813,3.4046 C299.6253,3.4696 300.0433,3.4506 300.3493,3.5406 C301.1723,3.7856 301.5473,4.4176 301.9843,5.0236 C302.2073,5.3376 302.8003,6.0746 302.6113,6.2386 C302.1153,6.6556 301.1273,7.0186 300.7893,7.6306 C300.2463,6.6936 299.4963,5.9006 298.7183,5.1156 C298.1363,4.5306 297.6173,3.8766 297.0213,3.3606 C296.8083,3.1746 296.4723,3.0356 296.3923,2.7756 C297.3963,2.9386 298.3693,3.2366 299.2813,3.4046 M304.1173,8.6206 C304.6503,8.6976 305.0953,8.6836 305.3733,8.8466 C305.6993,9.0376 306.7653,10.4816 306.3773,10.7336 C305.7303,11.1506 304.6293,11.7056 303.8653,12.0806 C303.0543,10.7586 302.1333,9.5146 301.3533,8.1706 C302.1173,8.2246 303.1833,8.4876 304.1173,8.6206 M311.9003,2.4626 C313.5683,2.3626 314.4783,2.6856 315.4783,3.1366 C316.9123,3.7816 317.8473,4.6066 318.7443,5.6536 C319.6543,6.7146 320.3403,7.6726 320.1873,9.0686 C320.0473,10.3586 319.1403,11.1786 317.6133,11.5426 C316.7543,11.7446 315.2443,11.9246 314.0973,11.8576 C312.5453,11.7636 312.2173,10.9656 311.6503,10.0586 C310.2653,7.8526 308.7873,5.9686 307.3813,3.9426 C308.4293,3.0686 309.8773,2.5816 311.9003,2.4626 M322.0093,3.8996 C322.5903,4.0916 323.2173,4.3466 323.8283,4.5296 C324.5173,4.7346 325.2263,4.8926 325.6503,5.2036 C326.3473,5.7156 326.7263,7.8366 326.2133,8.7106 C326.0393,9.0086 325.4613,9.3236 324.9593,9.5646 C323.5373,10.2466 321.9843,10.7596 320.7543,11.4536 C320.7183,11.4696 320.6233,11.6926 320.5003,11.5416 C320.7563,10.9446 321.3613,10.3266 321.5683,9.6086 C321.7913,8.8426 321.8843,7.6636 321.6953,6.9116 C321.3633,5.6086 320.2483,4.4746 319.5603,3.5396 C319.2593,3.3336 318.8083,3.0076 318.5543,2.7776 C318.5113,2.7396 318.2013,2.5726 318.4293,2.5506 C319.6253,2.8906 320.7113,3.4756 322.0093,3.8996 M325.4613,2.8206 C327.1973,2.9486 328.2753,3.1226 329.2893,3.8546 C330.1133,4.4506 330.3203,5.0906 330.4203,6.2826 C330.4723,6.8916 330.5643,7.5956 330.4823,8.0806 C330.3593,8.8136 330.3963,9.9846 330.0453,10.5526 C329.5923,11.2806 328.3383,11.4116 327.0933,11.5886 C324.9413,11.8906 322.6273,11.8376 320.3753,11.9926 C320.6753,11.6916 321.2223,11.5666 321.6933,11.4076 C322.1293,11.2606 322.6033,11.0446 323.1383,10.9126 C323.5133,10.8196 324.0823,10.7746 324.5823,10.6876 C325.0743,10.6026 325.5683,10.4696 325.9633,10.4186 C326.8843,10.2966 327.6403,10.3426 328.2243,10.0576 C329.0993,9.6286 329.2933,7.9606 329.1643,6.9116 C329.0273,5.7716 328.5433,4.8966 327.5333,4.4396 C326.4083,3.9296 324.6443,3.8126 323.1383,3.4966 C321.7563,3.2046 320.4863,2.8236 319.4333,2.5506 C321.6663,2.6556 323.4243,2.6726 325.4613,2.8206 M301.4183,7.4966 C302.3183,6.9446 304.5433,6.8436 304.9943,6.0586 C305.2673,5.5816 304.9703,5.1966 304.7443,4.8436 C304.3343,4.2076 303.6253,3.3386 302.9243,3.0016 C302.2403,2.6706 301.4843,2.7726 300.5393,2.8226 C299.2853,2.8856 297.9103,2.7056 296.8963,2.5966 C296.5373,2.5566 296.0253,2.6236 295.8303,2.3706 C297.8833,2.4116 300.7153,1.8876 302.7343,2.1926 C304.2653,2.4226 304.4743,2.6076 305.1213,3.5396 C305.3553,3.8786 305.6813,4.2156 305.8733,4.4836 C307.0543,6.1306 308.2543,7.8616 309.3903,9.3836 C309.8283,9.9716 310.4253,10.4946 310.3323,11.3616 C310.2563,12.0566 309.6643,12.2476 308.8243,12.3056 C307.3713,12.4066 305.6233,12.2686 304.0523,12.2616 C304.8003,12.0866 305.5863,11.8926 306.5623,11.7216 C307.3383,11.5866 308.5453,11.4976 308.8243,11.0016 C309.0663,10.5736 308.7363,10.2386 308.5113,9.9246 C308.3083,9.6446 308.1233,9.3716 307.9453,9.1146 C307.6193,8.6446 307.2283,7.8936 306.5023,7.6756 C305.6313,7.4176 304.5933,7.6646 303.6753,7.7656 C303.2153,7.8176 302.7363,7.8626 302.2973,7.9026 C301.8713,7.9386 301.3063,8.0276 300.9763,7.7656 C301.3383,7.6106 301.1953,7.6316 301.4183,7.4966 M251.3193,12.5766 C257.7583,12.5766 264.2023,12.5766 270.7803,12.5776 C271.7343,12.5756 272.7563,12.6546 273.4163,12.4866 C274.0483,12.3266 274.4063,11.9016 274.8613,11.4516 C275.5563,10.7656 276.1143,10.1316 277.7493,10.4636 C278.7943,10.6766 279.5853,11.4036 280.7013,11.8126 C280.9963,11.9186 281.3993,11.9886 281.7663,12.0816 C282.9133,12.3716 284.2313,12.5536 286.0983,12.4856 C285.9183,12.3196 285.6033,12.2746 285.3453,12.1716 C284.0683,11.6616 283.2223,10.4866 282.3333,9.6086 C281.5433,8.8306 280.8043,8.0606 280.1343,7.3166 C278.6803,5.6986 277.1773,4.0476 276.8713,1.9206 C277.3103,1.8186 278.0203,1.9086 278.5643,1.8776 C278.9523,3.0086 279.5493,4.0206 280.1973,5.0696 C280.2163,5.0986 280.3103,5.0536 280.3223,5.1136 C280.3373,5.1826 280.4463,5.4816 280.5743,5.6516 C281.1773,6.4696 281.9493,7.2746 282.6463,8.0806 C283.2973,8.8336 283.9893,9.5846 284.7813,10.4646 C285.2803,11.0176 285.8843,11.5716 286.6643,12.0366 C286.9633,12.2156 287.2383,12.4066 287.4163,12.4416 C288.2153,12.5856 289.8843,12.4416 290.8063,12.4416 C294.1173,12.4406 297.5743,12.4416 300.9143,12.4416 C300.7223,11.2876 300.1793,10.4326 299.0313,9.8796 C298.2613,9.5096 297.8123,9.4116 296.5193,9.3396 C294.2953,9.2166 291.4573,9.2926 289.1113,9.1596 C288.1313,9.1026 287.1593,9.0956 286.4123,8.8906 C285.5123,8.6406 284.8883,8.0656 284.1533,7.4956 C283.4303,6.9386 282.8413,6.3246 282.3323,5.7876 C281.7803,5.2086 281.1723,4.6166 280.7003,3.9446 C280.2323,3.2806 279.8433,2.5886 279.3813,1.9226 C279.7963,1.9006 280.0903,1.7986 280.3853,1.8776 C280.6093,1.9376 281.0063,2.5546 281.2633,2.9556 C281.8543,3.8736 282.2463,4.3716 282.9603,5.1126 C283.2903,5.4566 283.5753,5.8236 283.9033,6.1036 C284.2473,6.3986 284.7963,6.6536 285.2183,6.9566 C286.0803,7.5726 286.5563,7.9366 287.7323,8.2596 C289.0433,8.6196 291.4963,8.5446 293.4433,8.5306 C294.7383,8.5206 296.9103,8.6186 297.1483,7.8556 C297.2693,7.4656 296.8613,6.9126 296.5843,6.5086 C296.2853,6.0766 295.9703,5.7376 295.7033,5.4286 C295.0273,4.6446 294.5273,3.8456 293.8833,3.2696 C293.2383,2.6986 292.3733,2.4106 291.3713,2.0566 C292.1093,2.0526 292.9293,2.1406 293.4433,2.3726 C293.6033,2.4426 293.6483,2.5136 293.8183,2.6406 C294.5373,3.1746 295.5173,3.9126 296.1423,4.5286 C297.7853,6.1476 299.2033,7.7616 300.5393,9.5626 C301.2183,10.4826 301.9743,11.3806 302.2343,12.4406 C308.7133,12.3086 315.5393,12.6186 322.1343,12.4416 C323.1463,12.4136 324.1833,12.3126 325.2113,12.2616 C326.2563,12.2096 327.3473,12.2486 328.2853,12.1276 C329.6773,11.9446 330.7613,11.5216 331.2993,10.5976 C331.4553,10.3286 331.5933,9.9266 331.7383,9.5196 C332.0903,8.5366 332.4493,6.9676 332.2423,5.5636 C332.2013,5.2826 332.0393,4.9286 331.9293,4.6186 C331.8143,4.3046 331.7523,3.9596 331.6133,3.7206 C331.2673,3.1226 330.3983,2.5196 329.7303,2.2826 C329.2033,2.0936 328.3183,1.9696 327.5333,1.8326 C324.4823,1.3026 320.1793,1.5626 316.3573,1.5616 C297.8343,1.5606 278.3393,1.5636 259.5433,1.5626 C257.0043,1.5626 254.4083,1.5266 252.7623,2.1476 C251.8003,2.5106 250.3293,3.5116 249.9373,4.0356 C249.1333,5.1166 249.3903,7.2596 249.6833,8.6206 C249.8253,9.2586 249.9723,9.7876 250.2503,10.3276 C250.5293,10.8686 250.8353,11.3556 251.0673,11.8576 C251.1313,11.9936 251.2573,12.2766 251.3193,12.5766" id="Fill-104"></path>
            </g>
        </g>
    </g>
</svg>