<?xml version="1.0" encoding="utf-8"?>
<!-- Generator: Adobe Illustrator 15.1.0, SVG Export Plug-In . SVG Version: 6.00 Build 0)  -->
<!DOCTYPE svg PUBLIC "-//W3C//DTD SVG 1.1//EN" "http://www.w3.org/Graphics/SVG/1.1/DTD/svg11.dtd">
<svg version="1.1" id="Layer_1" xmlns="http://www.w3.org/2000/svg" xmlns:xlink="http://www.w3.org/1999/xlink" x="0px" y="0px"
	 width="556px" height="110px" viewBox="0 0 556 110" style="enable-background:new 0 0 556 110;" xml:space="preserve">
<style type="text/css">
<![CDATA[
	.st0{fill:#005581;}
]]>
</style>
<g>
	<g>
		<path class="st0" d="M12,36.7L43,81.3l30.6-44.1l13.2,68.3L69,108.7l-5.1-27.2l-20.7,27.6L22,81.5l-4.3,27.2L0,105.8L12,36.7z"/>
		<path class="st0" d="M126.6,36.3l35,66.7l-16.8,5.6l-5.2-10.5h-25.6l-4.7,10.4l-16.8-5.9L126.6,36.3z M126.1,71.1l-6.2,13.5h12.8
			L126.1,71.1z"/>
		<path class="st0" d="M168.2,107.7V40.1h-0.1l2.4-0.2c1.8-0.1,3.7-0.2,5.9-0.4c2.2-0.1,4.7-0.2,7.6-0.3h7.7c3.1,0,6,0.2,8.6,0.5
			c2.6,0.3,5.2,1,7.6,2.1c2.4,1,4.5,2.4,6.4,4.3c1.3,1.4,2.4,2.9,3.4,4.5c1,1.7,1.8,3.4,2.2,5.2c0.5,1.8,0.8,3.6,0.8,5.5
			c0,4.1-1.3,8.1-3.8,11.8c-0.6,0.9-1.6,1.9-3,3.1c-1.4,1.2-2.8,2.1-4.3,2.8l12.5,20.8l-16,9.1l-20-36.2v33.9L168.2,107.7z
			 M186.1,55v16.2c0.2,0,0.5,0,1,0c0.4,0.1,1,0.1,1.6,0.1c4.6,0,7.9-0.9,9.7-2.7c1.9-1.8,2.9-3.7,2.9-5.6c0-1.9-0.8-3.7-2.5-5.5
			c-1.7-1.8-4.8-2.6-9.2-2.6c-0.9,0-1.6,0-2.3,0.1C186.8,55,186.4,55,186.1,55z"/>
		<path class="st0" d="M261.1,36.3l35,66.7l-16.8,5.6L274,98.2h-25.6l-4.7,10.4l-16.8-5.9L261.1,36.3z M260.6,71.1l-6.2,13.5h12.8
			L260.6,71.1z"/>
		<path class="st0" d="M299.4,40.1h46.9v15.5h-14.6v51.1l-19,1V55.6h-15.9L299.4,40.1z"/>
		<path class="st0" d="M373,79.6v27l-18.8,1V40.1l18.8-0.8v25.4h21.3V40.1l18.8-0.8v67.4l-18.8,1V79.6H373z"/>
		<path class="st0" d="M458.4,108.7c-0.6,0.1-1.6,0.1-2.8,0.1c-5.6,0-10.6-1-15-2.9c-4.4-1.9-8.1-4.6-11.2-8.1
			c-3.1-3.4-5.4-7.3-6.8-11.5c-1.5-4.1-2.2-8.5-2.2-13c0-4.4,0.7-8.7,2.2-12.9c1.4-4.1,3.6-7.9,6.4-11.3c2.9-3.4,6.5-6.1,10.7-8.2
			c4.3-2.1,9.2-3.3,14.6-3.6c0.6-0.1,1.6-0.1,2.8-0.1c7.4,0,13.9,1.7,19.3,5.1c5.4,3.4,9.4,7.8,12.2,13.2c2.8,5.4,4.1,11.3,4.1,17.5
			c0,4.4-0.7,8.6-2.2,12.8c-1.4,4.1-3.6,7.8-6.4,11.1c-2.9,3.3-6.5,6-10.7,8.1C468.9,107.1,464,108.3,458.4,108.7z M455.2,55.1
			c-3.4,0.3-6.2,1.3-8.5,3c-2.4,1.7-4.1,3.9-5.3,6.5c-1.2,2.6-1.8,5.4-1.8,8.4c0,3.1,0.7,6,2,8.7c1.3,2.8,3.2,5,5.7,6.7
			c2.6,1.7,5.6,2.5,9.2,2.5c3.6,0,6.6-0.8,9.1-2.5c2.6-1.7,4.5-3.8,5.7-6.5c1.2-2.6,1.8-5.4,1.8-8.5c0-2.4-0.3-4.7-1-6.9
			c-0.7-2.1-1.9-4.1-3.4-5.8c-1.5-1.8-3.4-3.1-5.6-4.1C460.9,55.6,458.3,55.1,455.2,55.1z"/>
		<path class="st0" d="M499.7,37.8l37.4,33V40.1l18.9-0.8V110l-37.1-32.9v29.6l-19.2,1V37.8z"/>
	</g>
	<g>
		<path class="st0" d="M8.7,27.9V0.5H13l9.7,13.8c2.2,3.2,4,6.1,5.4,8.9l0.1,0c-0.4-3.7-0.5-7-0.5-11.2V0.5h3.7v27.4h-4L17.9,14
			c-2.1-3-4.1-6.2-5.6-9.1l-0.1,0c0.2,3.5,0.3,6.7,0.3,11.3v11.7H8.7z"/>
		<path class="st0" d="M64.3,13.9c0,9.4-6.4,14.4-14.1,14.4c-8.1,0-13.7-5.6-13.7-13.9c0-8.7,6-14.4,14.1-14.4
			C58.9,0,64.3,5.7,64.3,13.9z M40.7,14.3c0,5.9,3.5,11.1,9.7,11.1c6.2,0,9.7-5.2,9.7-11.4c0-5.5-3.2-11.2-9.7-11.2
			S40.7,8.3,40.7,14.3z"/>
		<path class="st0" d="M69.4,0.9c2-0.3,4.9-0.6,7.5-0.6c4.2,0,6.9,0.7,8.8,2.2c1.5,1.2,2.4,3.1,2.4,5.2c0,3.6-2.5,6-5.7,6.9v0.1
			c2.3,0.7,3.7,2.7,4.4,5.5c1,3.8,1.7,6.5,2.3,7.5h-4.1c-0.5-0.8-1.2-3.1-2-6.5c-0.9-3.8-2.6-5.2-6.1-5.3h-3.7v11.9h-3.9V0.9z
			 M73.3,13.3h4c4.2,0,6.9-2.1,6.9-5.2c0-3.5-2.8-5.1-7-5.1c-1.9,0-3.2,0.1-3.9,0.3V13.3z"/>
		<path class="st0" d="M99.8,3.5h-9.2v-3h22.5v3h-9.3v24.4h-4V3.5z"/>
		<path class="st0" d="M120.4,0.5v11.4h14.7V0.5h4v27.4h-4V15h-14.7v12.8h-4V0.5H120.4z"/>
		<path class="st0" d="M181.4,13.9c0,9.4-6.4,14.4-14.1,14.4c-8.1,0-13.7-5.6-13.7-13.9c0-8.7,6-14.4,14.1-14.4
			C176,0,181.4,5.7,181.4,13.9z M157.8,14.3c0,5.9,3.5,11.1,9.7,11.1c6.2,0,9.7-5.2,9.7-11.4c0-5.5-3.2-11.2-9.7-11.2
			C161,2.9,157.8,8.3,157.8,14.3z"/>
		<path class="st0" d="M186.4,0.5h4v24.4h13v3h-17V0.5z"/>
		<path class="st0" d="M210.7,27.9V16.2l-9.6-15.8h4.5l4.3,7.6c1.1,2.1,2.1,3.7,3,5.6h0.1c0.8-1.8,1.9-3.6,3.1-5.6l4.4-7.6h4.4
			l-10.1,15.7v11.7H210.7z"/>
		<path class="st0" d="M253.5,15.8C253.3,12,253,7.4,253,4h-0.1c-1.1,3.2-2.3,6.6-3.8,10.4l-5.4,13.3h-3l-5-13
			c-1.4-3.9-2.6-7.4-3.5-10.6h-0.1c-0.1,3.4-0.3,8-0.6,12.1l-0.8,11.7h-3.7l2.1-27.4h5l5.2,13.2c1.3,3.4,2.3,6.4,3.1,9.2h0.1
			c0.8-2.8,1.9-5.8,3.2-9.2l5.4-13.2h5l1.9,27.4h-3.9L253.5,15.8z"/>
		<path class="st0" d="M264.2,0.8c1.9-0.3,4.4-0.5,7.5-0.5c3.9,0,6.7,0.8,8.5,2.3c1.6,1.3,2.7,3.3,2.7,5.7c0,2.5-0.8,4.4-2.3,5.8
			c-2.1,2-5.5,3-9.3,3c-1.2,0-2.3,0-3.2-0.2v11h-3.9V0.8z M268.1,14c0.9,0.2,1.9,0.3,3.2,0.3c4.7,0,7.6-2.1,7.6-5.8
			c0-3.7-2.9-5.4-7.2-5.4c-1.7,0-3,0.1-3.7,0.3V14z"/>
		<path class="st0" d="M292.1,0.5v27.4h-4V0.5H292.1z"/>
		<path class="st0" d="M320.1,27c-1.4,0.6-4.3,1.3-8,1.3c-8.6,0-15-4.9-15-13.9C297.1,5.8,303.6,0,313,0c3.7,0,6.2,0.7,7.2,1.2
			l-1,2.9c-1.4-0.6-3.6-1.1-6.1-1.1c-7.1,0-11.9,4.1-11.9,11.3c0,6.7,4.3,11,11.6,11c2.4,0,4.9-0.4,6.4-1.1L320.1,27z"/>
		<path class="st0" d="M334.6,0.9c2.4-0.4,5.2-0.6,8.3-0.6c5.6,0,9.6,1.2,12.3,3.4c2.8,2.2,4.3,5.4,4.3,9.8c0,4.5-1.6,8.1-4.4,10.6
			c-2.9,2.6-7.6,3.9-13.5,3.9c-2.8,0-5.1-0.1-7.1-0.3V0.9z M338.6,25.1c1,0.1,2.4,0.2,4,0.2c8.4,0,12.9-4.2,12.9-11.6
			c0-6.5-4-10.6-12.3-10.6c-2,0-3.6,0.2-4.6,0.4V25.1z"/>
		<path class="st0" d="M368.6,0.5v27.4h-4V0.5H368.6z"/>
		<path class="st0" d="M374.9,23.6c1.8,1,4.3,1.8,7,1.8c4,0,6.4-1.9,6.4-4.7c0-2.5-1.6-4-5.7-5.4c-5-1.6-8-4-8-7.8
			c0-4.3,3.9-7.4,9.8-7.4c3.1,0,5.4,0.7,6.7,1.3L390,4.3c-1-0.5-3-1.3-5.7-1.3c-4.1,0-5.7,2.2-5.7,4.1c0,2.6,1.9,3.8,6,5.3
			c5.1,1.8,7.7,4,7.7,8c0,4.2-3.4,7.9-10.6,7.9c-2.9,0-6.1-0.8-7.8-1.8L374.9,23.6z"/>
		<path class="st0" d="M418.8,27c-1.4,0.6-4.3,1.3-8,1.3c-8.6,0-15-4.9-15-13.9c0-8.6,6.4-14.4,15.9-14.4c3.7,0,6.2,0.7,7.2,1.2
			l-1,2.9c-1.4-0.6-3.6-1.1-6.1-1.1C404.7,3,400,7.1,400,14.3c0,6.7,4.3,11,11.6,11c2.4,0,4.9-0.4,6.4-1.1L418.8,27z"/>
		<path class="st0" d="M448.8,13.9c0,9.4-6.4,14.4-14.1,14.4c-8.1,0-13.7-5.6-13.7-13.9c0-8.7,6-14.4,14.1-14.4
			C443.5,0,448.8,5.7,448.8,13.9z M425.2,14.3c0,5.9,3.5,11.1,9.7,11.1c6.2,0,9.7-5.2,9.7-11.4c0-5.5-3.2-11.2-9.7-11.2
			C428.4,2.9,425.2,8.3,425.2,14.3z"/>
		<path class="st0" d="M460.6,27.9l-10-27.4h4.3l4.7,13.5c1.3,3.7,2.4,7,3.2,10.2h0.1c0.9-3.2,2.1-6.6,3.5-10.2l5.1-13.5h4.2
			l-10.9,27.4H460.6z"/>
		<path class="st0" d="M494.8,15H483v9.9h13.2v3H479V0.5h16.5v3H483v8.6h11.8V15z"/>
		<path class="st0" d="M501.3,0.9c2-0.3,4.9-0.6,7.5-0.6c4.2,0,6.9,0.7,8.8,2.2c1.5,1.2,2.4,3.1,2.4,5.2c0,3.6-2.5,6-5.7,6.9v0.1
			c2.3,0.7,3.7,2.7,4.4,5.5c1,3.8,1.7,6.5,2.3,7.5H517c-0.5-0.8-1.2-3.1-2-6.5c-0.9-3.8-2.6-5.2-6.1-5.3h-3.7v11.9h-3.9V0.9z
			 M505.2,13.3h4c4.2,0,6.9-2.1,6.9-5.2c0-3.5-2.8-5.1-7-5.1c-1.9,0-3.2,0.1-3.9,0.3V13.3z"/>
		<path class="st0" d="M531.8,27.9V16.2l-9.6-15.8h4.5l4.3,7.6c1.1,2.1,2.1,3.7,3,5.6h0.1c0.8-1.8,1.9-3.6,3.1-5.6l4.4-7.6h4.4
			l-10.1,15.7v11.7H531.8z"/>
	</g>
</g>
</svg>
