<?xml version="1.0" encoding="UTF-8" standalone="no"?>
<svg width="412px" height="146px" viewBox="0 0 412 146" version="1.1" xmlns="http://www.w3.org/2000/svg" xmlns:xlink="http://www.w3.org/1999/xlink" xmlns:sketch="http://www.bohemiancoding.com/sketch/ns">
    <!-- Generator: Sketch 3.3.3 (12072) - http://www.bohemiancoding.com/sketch -->
    <title>trees-right</title>
    <desc>Created with Sketch.</desc>
    <defs></defs>
    <g id="Page-1" stroke="none" stroke-width="1" fill="none" fill-rule="evenodd" sketch:type="MSPage">
        <g id="flattened" sketch:type="MSLayerGroup" transform="translate(-588.000000, -4.000000)" fill="#377B2A">
            <g id="bg" transform="translate(-1.000000, 3.000000)" sketch:type="MSShapeGroup">
                <g id="trees" transform="translate(1.000000, 0.000000)">
                    <path d="M1000,134.848429 L1000,147 L807,147 L807,144.442634 L815.64433,135.026018 C819.912733,134.279742 820.325353,136.025003 821.49529,137.160714 L831.131565,134.527795 L831.396032,134.187886 C832.661908,133.391661 833.523229,132.514586 834.620576,131.681957 C835.098145,131.318766 835.727262,131.200666 836.001068,130.90986 C835.070552,130.521271 833.833967,130.58138 833.32923,129.950664 C833.001937,129.538795 831.325564,130.217766 831.764503,129.663668 C832.686954,128.505522 832.861001,127.570455 834.438039,126.585015 C834.516997,126.537606 834.352713,126.339502 834.438039,126.294632 C834.710996,126.153251 836.036302,125.815035 835.815984,125.238078 C835.782872,125.144953 834.202438,125.238078 834.066597,125.238078 C834.431671,124.855416 834.739862,124.646307 835.079891,124.083319 C835.244175,123.812408 835.02513,123.515252 835.264551,123.313762 C835.354971,123.235452 836.583914,123.25069 836.001068,122.639447 L835.537084,122.639447 C835.423316,122.489176 835.657219,122.208952 835.537084,122.062914 C835.289597,121.74798 833.882361,122.445576 833.882361,121.868196 C833.882361,120.96149 835.597363,120.908578 835.906403,120.040815 C836.001068,119.77837 835.911498,119.410947 836.092337,119.268718 C836.468873,118.988494 836.932433,119.263639 837.108179,118.789121 C837.366702,118.066973 835.897489,117.670342 833.97363,118.019563 C833.698975,117.388001 836.628912,116.966819 837.133224,117.165346 C837.610793,116.526588 834.885468,115.967411 834.815,116.065616 C834.959756,115.758724 837.226191,115.532683 837.370948,115.40527 C837.590841,114.86768 834.477518,115.221981 834.510629,115.299868 C834.407899,114.634019 836.858145,113.470794 837.282226,113.777686 C837.435472,113.509738 836.789375,112.616577 836.923943,112.380376 C837.625651,111.100321 837.466886,110.799778 837.565796,110.514475 C836.186153,110.721045 836.855173,109.719096 837.383258,109.170924 C837.761068,108.7726 837.482168,108.559258 837.841724,108.108868 C837.99582,107.914997 838.130388,108.221465 838.304435,108.400097 C838.599467,108.704449 838.759081,108.918638 838.759081,109.55274 C838.759081,110.537333 839.36018,110.32526 839.495598,110.902217 C839.57116,111.197679 838.947986,111.76363 839.272732,112.065865 C839.586017,111.986285 839.957884,112.136979 840.268622,112.331274 L840.767416,112.788436 L840.845525,112.734677 C841.79472,112.175923 843.120026,111.775905 843.468969,110.808668 C843.633678,110.337959 843.468969,109.673803 843.797537,109.43337 C844.474199,108.923295 845.301984,109.417708 845.608053,108.568993 C846.072462,107.274969 843.450716,106.56298 840.0084,107.192002 C839.521493,106.061794 844.755221,105.312979 845.656446,105.669396 C846.51607,104.516754 841.637653,103.521578 841.515395,103.697247 C841.778588,103.154155 845.8254,102.745671 846.089018,102.518783 C846.477865,101.560435 840.910475,102.184377 840.97033,102.329569 C840.776331,101.136289 845.169114,99.0612782 845.926856,99.6060639 C846.198965,99.1264663 845.043885,97.5348626 845.282033,97.1086007 C846.536871,94.8244802 846.249481,94.2805412 846.428198,93.7768155 C843.963094,94.1455088 845.16402,92.3519916 846.099206,91.3682451 C846.77799,90.6587963 846.28047,90.2812137 846.922746,89.4748294 C847.206741,89.1222215 847.436823,89.6653139 847.750532,89.9904074 C848.273099,90.543659 848.567705,90.9220882 848.567705,92.0569524 C848.567705,93.8111027 849.637884,93.4377532 849.888767,94.4663693 C850.013571,94.9933764 848.902216,96.01268 849.479119,96.5456132 C850.610426,96.2586166 852.16072,97.6220622 852.336041,98.0055709 C852.519852,98.4009321 849.431574,97.0599213 849.212105,98.1406033 C849.030416,98.5478168 851.852529,99.2162056 852.02785,99.6234191 C852.699418,101.175233 850.92074,101.281904 851.698858,103.065685 C852.25114,104.337275 852.913369,103.531737 853.67196,104.099381 C854.300653,104.565433 853.894401,105.238902 854.166084,105.989834 C854.474275,106.852093 853.514044,107.040885 853.67196,107.711813 C853.862563,108.495339 857.301482,109.340244 855.322862,110.634269 C854.545168,111.137571 853.171892,111.104554 852.354719,111.493565 C851.473446,111.915171 853.115009,112.840079 854.000527,114.077381 C854.639408,114.964616 855.093204,116.529551 855.815288,117.169579 C856.058954,117.395198 856.317903,117.606 856.573031,117.814687 L856.578125,117.814687 L856.587888,117.804528 C856.965274,117.437104 857.420344,117.074337 858.012953,116.704374 C858.129268,116.63199 857.888573,116.334834 858.012953,116.273456 C858.217565,116.167631 858.815693,115.982226 859.323402,115.719781 L859.713098,115.439557 L859.584473,115.23595 C859.539051,115.091605 859.57853,114.953187 859.678713,114.823234 L859.857854,114.654761 L859.678713,114.625553 C858.981251,114.606082 857.607975,114.683969 857.459398,114.683969 C858.007859,114.115055 858.472693,113.800967 858.976156,112.957333 C859.220247,112.550119 858.90017,112.108618 859.254632,111.801727 C859.384531,111.692092 861.227734,111.706908 860.355375,110.795545 L859.6681,110.795545 C859.488959,110.572044 859.843846,110.148321 859.6681,109.932016 C859.289866,109.457498 857.180923,110.504316 857.180923,109.641209 C857.180923,108.27861 859.752577,108.20157 860.216137,106.901619 C860.361318,106.509221 860.221656,105.95089 860.495037,105.746437 C861.062601,105.321445 861.757941,105.737971 862.010947,105.024712 C862.399369,103.940221 863.143103,102.43116 861.321974,102.43116 C859.693146,102.43116 861.596629,104.151023 859.573436,103.682855 C858.592828,103.45512 857.057391,102.421848 857.320585,102.140354 C857.753581,101.688694 859.413822,101.006336 860.449615,100.477213 C861.521916,99.9307341 861.976562,99.5357962 862.415076,98.9850845 C863.206779,97.9907555 859.584473,96.7542996 861.596629,96.3754471 C864.1114,95.9009291 861.628043,94.9933764 863.789625,94.8790857 C861.582196,94.5230914 862.474507,93.2527716 862.705013,92.6271359 C861.252355,92.8413251 861.431496,91.5180929 862.120469,90.7409163 C862.418472,90.4073568 863.056504,90.6109635 863.292104,90.3684133 C863.859244,89.7774881 863.635954,87.1052025 864.172529,86.4283477 C864.408129,86.1311919 864.781694,88.5753194 864.557131,89.243285 C864.363132,89.8160083 865.365389,89.995487 865.365389,90.9411366 C865.365389,92.41337 865.393831,92.3414092 865.601839,93.2053621 C865.743199,93.8153357 867.255288,94.4663693 867.484521,95.0077686 C867.613995,95.325666 865.928708,95.7210271 865.877767,96.0016742 C866.950917,95.9826258 867.164868,97.0116653 867.394101,97.5302063 C867.698472,98.2333057 867.354622,98.3103461 865.459629,98.8589414 C864.875934,99.5264837 866.816349,99.7317836 867.119022,100.414988 C867.234063,100.676587 867.354622,100.836594 867.480276,100.928873 L867.842379,101.053323 L868.431593,99.7461758 C868.790724,98.7226392 870.366064,99.0951422 870.366064,97.3397219 C870.366064,96.2061276 870.804154,95.8234654 871.57166,95.2757167 C872.030975,94.9501999 872.369306,94.4083774 872.781925,94.7554825 C873.723479,95.5656764 872.995876,95.9445289 873.988795,96.6510147 C875.365041,97.6313748 877.128013,99.4303948 873.504434,99.0570453 L875.002514,102.512434 L875.229624,102.39645 L875.214767,102.339304 C874.972374,100.784951 876.088823,98.9546069 876.58125,97.6453436 C876.754873,97.1856411 877.150087,96.6230769 877.681144,96.0689788 L877.745244,96.0173363 L877.282533,96.041041 C875.874024,95.93056 876.893686,94.4511306 877.718076,93.587601 C878.395586,92.8853482 877.896368,92.506919 878.539494,91.6963017 C878.816271,91.3475035 879.053146,91.8914425 879.362186,92.2161127 C879.889421,92.764708 880.185302,93.1477935 880.185302,94.2750383 L880.189971,94.3059391 L881.781018,93.6942723 C882.498432,93.5939504 883.175943,93.7196702 883.717612,94.1645573 C883.854303,94.2805412 884.670203,93.6278143 884.813686,93.5478109 C885.104472,93.3801845 885.408842,93.1761545 885.727221,92.9581556 L886.440391,92.4540067 L886.475625,92.1052084 C886.515104,91.9354656 886.59109,91.7890042 886.72014,91.6869892 C887.781828,90.8488575 889.211138,91.6632844 889.615268,90.2621653 C889.964211,89.0350219 887.577217,88.1532905 887.322513,87.09589 C887.278365,86.8935531 887.386189,86.6700513 887.545803,86.4465495 L887.601413,86.3830547 L887.113657,86.093095 C887.333975,89.1179885 884.365832,91.2861252 884.02835,86.7132278 C883.683227,87.8324299 883.639079,89.1378836 882.398249,89.6949448 C882.049306,89.8532586 882.144819,89.1078293 881.773377,88.948669 C881.232557,88.7205109 881.630319,91.0528875 880.307984,90.3159242 C879.506093,89.8697673 879.531563,89.14127 879.8007,88.4445201 L879.989605,88.0762501 L879.910647,88.1194266 C878.744105,88.5414555 879.462793,85.074638 879.920835,84.554827 C880.518114,83.8779722 881.15657,83.4313919 881.801394,83.0288347 L881.988177,82.9065014 L882.297217,82.2673201 C882.453435,82.0582105 882.66781,81.9083627 882.960719,81.8698425 L883.578799,81.8448679 L883.717612,81.7398898 C884.02835,81.4821008 884.33739,81.1815586 884.640912,80.8230245 L884.84425,80.55042 L884.804771,80.0703991 C884.759349,79.4600022 884.876088,79.2182986 885.718307,79.155227 L885.894901,79.1501475 L886.095268,78.8728867 L885.846932,78.5782707 C885.607511,78.0542268 886.009942,77.6220386 886.610617,77.3075276 L887.218085,77.0836025 L887.437979,76.676389 C887.849749,75.7849217 888.064124,74.9069999 887.811968,74.1996675 C887.411235,73.0935877 883.538471,73.4199511 883.695113,72.1200003 C883.802513,71.1417567 885.888109,71.6107718 886.923903,70.7332733 C888.332836,69.5408405 888.812103,67.0196726 889.187791,65.7294578 C885.133338,66.3470508 886.909045,63.362794 888.349817,61.7356332 C889.380516,60.5656352 888.513676,59.9404228 889.480275,58.6023752 C889.90478,58.0165296 890.357728,58.9185794 890.907887,59.4553224 C891.842648,60.3679547 892.387289,60.9978233 892.520159,62.8789634 C892.735383,65.7933759 894.469064,65.1673169 894.997149,66.8736345 C895.073984,67.1072955 894.241104,69.6475118 894.814187,70.1808684 C895.856772,71.1417567 898.463661,70.3459549 897.775113,71.5667488 L897.744124,71.6052689 L898.429276,71.7216761 L900.721181,72.3236071 L900.955508,71.8520522 C901.298084,71.1840866 901.631746,70.5533713 901.891968,69.976415 C903.352691,66.7191304 911.278209,60.7023607 914.889053,63.86144 C915.110221,64.0574273 916.625705,62.9136739 916.884229,62.7667892 C917.425898,62.4759829 917.985821,62.1174488 918.57079,61.7356332 L919.890577,60.8467057 L919.996704,60.2303825 C920.09052,59.930687 920.241219,59.6779776 920.478518,59.4984988 C922.454591,58.0258422 924.870876,59.460402 925.757668,56.9921464 C926.526448,54.8409417 922.443554,53.2827787 922.140032,51.421957 C922.079752,51.0718889 922.298797,50.6807607 922.612507,50.2879394 L922.716935,50.1774584 L921.889149,49.66696 C921.889149,54.9810536 916.391803,58.7865102 916.391803,50.7582244 C915.639579,52.7269873 915.395488,55.0140709 913.142213,55.9990873 C912.50503,56.2759248 912.773318,54.9675081 912.142078,54.6910939 C911.20859,54.2830339 911.61272,58.3847996 909.388311,57.0890819 C908.033714,56.3042858 908.172102,55.029733 908.734997,53.7932771 L909.113656,53.1477464 L908.965079,53.2247868 C906.861229,53.9676762 908.577081,47.8725962 909.442223,46.9616571 C910.59051,45.7649913 911.766815,44.9835817 912.943969,44.2707464 L913.292488,44.0671397 L913.913964,42.9369318 C914.223429,42.5737414 914.613549,42.3074864 915.140785,42.238912 L916.223274,42.1957355 L916.482223,42.0120238 C917.065918,41.5557077 917.649613,41.0337802 918.216752,40.3967154 L918.6264,39.9226207 L918.610693,39.0789862 C918.614938,38.0025372 918.838653,37.5796617 920.327818,37.4691807 L920.648744,37.4581749 L921.032497,36.9743443 L920.633462,36.4545333 C920.279425,35.5330118 921.04311,34.7778466 922.140032,34.2203621 L923.240775,33.8237311 L923.669101,33.1096259 C924.512594,31.550193 925.004171,30.003459 924.645464,28.7564207 C924.092758,26.817712 917.239116,27.3895887 917.67763,25.099542 C918.003226,23.3801021 921.600486,24.2089212 923.535806,22.661764 C926.160949,20.566858 927.338527,16.1315328 928.156125,13.8677306 C920.957784,14.9433329 924.457408,9.7079729 927.197591,6.84647275 C929.167297,4.7862773 927.718035,3.69035661 929.594774,1.33427527 C930.408975,0.306082387 931.091156,1.89133654 931.992806,2.83740944 C933.525695,4.43620916 934.392111,5.5524482 934.392111,8.85417914 C934.392111,13.9744019 937.516472,12.8776346 938.23049,15.875437 C938.328551,16.2822272 936.533317,20.7514163 937.482087,21.6928329 C939.181382,23.3801021 943.867074,21.9827926 942.502289,24.1259547 L942.446254,24.2042649 L943.637841,24.3977125 C947.046196,24.9645097 951.607933,25.925398 949.883167,28.9206606 C951.990837,29.8371026 951.323514,30.7154477 949.883167,31.975185 C949.268907,32.5140445 947.749602,28.7856283 947.136616,28.9206606 C946.808473,28.9955845 946.090634,30.2146852 945.38638,30.4483461 C942.696288,31.3309242 943.637841,28.1117365 942.38555,28.2670872 C941.219858,28.412702 939.749795,29.8133979 938.389255,28.9206606 L937.450249,27.9568092 L937.132294,28.135018 C936.111358,28.7276363 935.398189,29.1835292 935.527663,29.4878811 C936.937446,32.887394 951.011078,33.5803342 947.79842,34.3613206 C940.831011,36.0718712 941.244479,35.7467777 943.507094,40.9453107 C945.118092,44.6491756 947.052139,42.3074864 949.264662,43.9553888 C951.089611,45.3124849 949.916278,47.2820944 950.70416,49.4688562 C951.378275,51.3550758 949.966794,52.1394485 949.419607,53.2362158 L949.268907,54.4227225 L950.715622,53.7395181 C953.955024,52.130136 955.361411,50.971567 956.745723,49.3372102 C959.238844,46.4003629 948.715776,42.7489871 954.722954,41.6272452 C962.214203,40.2312056 955.022231,37.5563802 961.436509,37.2071587 C954.95813,36.1590708 957.792554,32.4022936 958.557088,30.5499378 C954.24581,31.1908123 954.972139,27.2727582 957.13075,24.9797484 C958.05787,23.9955786 959.917628,24.6021659 960.650325,23.8736686 C962.420088,22.1245977 962.155197,14.2300744 963.850248,12.2333738 C964.593557,11.3601083 965.325829,18.5739671 964.557049,20.5533125 C963.89949,22.2494709 966.820513,22.7684353 966.674907,25.5761765 C966.455863,29.929805 966.550527,29.7113828 967.030219,32.2571021 C967.36388,34.0556988 971.730768,35.9800153 972.322953,37.5898208 C972.666378,38.5202317 967.622404,39.6893831 967.439866,40.5283614 C970.599036,40.4703694 971.078303,43.4965328 971.670488,45.0373406 C972.468559,47.1165845 971.44168,47.3358533 965.763919,48.9685169 C963.923687,50.9461691 969.640928,51.5387875 970.418197,53.560886 C971.621246,56.7021867 973.369784,54.7156453 975.179027,56.1146479 C976.665645,57.2685606 975.584005,58.9422842 976.156238,60.7984496 C976.815071,62.9356854 974.4077,63.4059704 974.717589,65.0610689 C975.080117,66.9997776 983.493392,69.0942602 978.424796,72.303712 C976.440233,73.5549834 973.045886,73.4728634 970.973026,74.4367149 C968.734608,75.4742203 972.68251,77.7642671 974.720985,80.8281041 C976.191472,83.0322211 977.114347,86.9028657 978.811945,88.4919295 C983.493392,92.8950841 989.93399,96.1629511 979.23263,96.1629511 C982.268694,96.1629511 985.76577,100.424724 981.052485,100.424724 C977.307922,100.424724 973.658872,100.434036 970.407584,101.272168 C974.706127,101.272168 992.504795,104.759304 984.281274,108.942766 C985.243628,110.009056 989.23016,112.855741 990.971481,113.631224 C991.475369,113.854726 994.967776,114.296227 995.000888,114.479938 C995.22248,115.654169 993.173816,115.865396 992.834212,117.03878 C992.59097,117.868446 997.340762,120.67534 997.842952,122.575529 C991.927043,122.575529 987.136074,121.377593 981.509678,120.777355 L978.857792,120.63301 L979.79043,121.927035 L980.522278,122.376578 C984.745683,125.853132 987.156026,132.802852 992.022557,132.802852 C991.554327,133.267634 991.250806,133.732416 991.07591,134.193389 L991.015205,134.798706 L997.755504,134.808019 L1000,134.848429 L1000,134.848429 L1000,134.848429 Z M955.893291,62 L955.990446,61.5196442 C956.016822,61.1886583 955.990446,60.879911 955.888016,60.602298 L955.444008,60 L955.499839,60.1230541 C955.53237,60.4325426 955.433457,60.7520385 955.18068,61.0833951 L955,61.2605634 L955.025497,61.2946627 L955.893291,62 L955.893291,62 Z M949.569055,71 L949.777903,69.9810915 C949.866382,69.3927413 950.004716,68.8646533 950.447563,68.5792003 C950.911969,68.2881969 951.386256,68.1383341 951.856052,68.0526982 L953,67.9099717 L952.668089,67.5571202 C951.802605,66.7447686 950.188412,63.8335449 949.755446,65.5133563 C949.513811,66.4581263 947.927465,66.6083856 945.812486,66.5354365 L945,66.4957902 L945.257804,66.8637074 C945.787334,67.5210421 946.70402,68.2929545 947.705143,69.1651718 L949.569055,71 L949.569055,71 Z M898.586826,77 L898.679897,76.4473684 L899,75.4736842 L898.451308,75.4780702 C897.946621,75.1666667 898.030346,74.1157895 897.543961,74.1815789 C896.940751,74.2723684 896.227335,75.095614 895.483154,74.5688596 L894.962501,74 L894.80206,74.1057018 C894.286079,74.452193 893.932876,74.7241228 894.01076,74.9057018 C894.450414,75.904386 896.507327,76.5074561 898.249589,76.9192982 L898.586826,77 L898.586826,77 Z M905.042347,90 L905.338148,89.8177421 C905.725262,89.5201099 906.096942,89.1710609 906.4399,88.7492759 C907.196122,87.8016183 907.885467,86.0108089 908.963212,85.296826 C910.155848,84.5038369 912.249177,85.0882327 913.974683,85.1062076 L914.816644,84.9757845 L915.335797,84.1823774 C916.190619,82.7840912 915.057572,81.2750291 916.306367,80.2161775 C916.759929,79.8307605 923.248262,79.8922098 920.178361,76.7562032 C919.607765,76.1709713 918.275802,77.3882536 917.755364,76.7562032 C917.600175,76.5647487 917.559449,76.3294019 917.58217,76.0760801 L917.595031,76 L917.076307,76.128333 C916.719631,76.2483055 916.291363,76.421785 915.778212,76.6705085 C913.789057,77.6415753 913.341497,79.9361022 911.23788,80.3369861 C907.668547,81.0166911 910.799322,79.6133887 907.951058,78.3940163 C905.293993,77.2590845 902.882571,77.5362336 899.876545,77.9626168 L898.919265,78.1787346 L899.116465,79.0398615 C898.300654,78.8095309 898.037863,78.4792929 898.780367,78.2067421 L898.919265,78.1787346 L898.860104,77.9149622 L898.864391,77.7373026 L898.069587,78.2017258 C897.8218,78.6427398 898.258213,79.3270431 899.022152,80.7871966 C900.096896,82.8643516 901.109479,81.5534323 902.453445,82.4776806 C903.56077,83.2434983 902.973454,84.3491684 903.511041,85.5735571 C904.133509,86.9885641 902.544328,87.299573 902.896718,88.3952107 C902.9816,88.6731958 903.334846,88.9599594 903.79741,89.2571736 L905.042347,90 L905.042347,90 Z M884.702654,106 L884.789183,105.845966 C885.256994,105.017927 884.489802,104.126795 885.207483,103.502393 C885.468921,103.274824 889.457116,103.308763 887.425306,101.449917 C887.050965,101.1053 886.290714,101.824558 885.940434,101.449917 C885.833545,101.33722 885.797916,101.202332 885.797916,101.046558 L885.804856,101 L885.497609,101.076582 C885.27828,101.150553 885.023783,101.250631 884.719775,101.399878 L883.723536,102.347141 L883.714282,102.595597 C883.512998,103.387521 882.582465,103.792185 883.220095,105.167174 C883.519013,105.819859 883.850322,105.940388 884.208931,105.971282 L884.702654,106 L884.702654,106 Z M588.01898,113 L588.023274,112.928571 C588.01898,112.661197 587.981737,112.336873 588.011326,112.137066 C588.022341,112.06612 588.038955,112.026544 588.060704,112.003861 L588.085532,112 L588.1,112.45222 L588.068824,112.661197 L588.01898,113 L588.01898,113 Z M840.209749,114 L840.354562,113.780219 C840.434323,113.684171 840.51974,113.593208 840.62043,113.509589 L841,113.23557 L840.281024,113.081893 C839.704033,112.96494 839.085747,112.919741 839.005987,113.321448 C838.939803,113.47908 839.433073,113.677391 839.955759,113.877397 L840.209749,114 L840.209749,114 Z M874.819552,114 L874.961775,113.87829 C875.111697,113.720808 875.228103,113.544569 875.304196,113.344772 C875.479484,112.859677 875.304196,112.175658 875.654771,111.924822 C875.920646,111.731133 876.217774,111.680093 876.495879,111.644322 L876.738201,111.591101 L876.765378,111.355969 L877,111.1553 L876.191504,111 C874.494794,111 873.988862,111.465901 874.000185,112.094954 L874.819552,114 L874.819552,114 Z M857.959589,123 L859,122.580378 L858.123505,122.416476 L856.928395,122 L854.943357,122.029462 C854.264445,122.059211 853.610781,122.117563 853,122.232551 C853.817981,122.232551 855.940084,122.468822 857.478659,122.848398 L857.959589,123 L857.959589,123 Z" id="trees-right"></path>
                </g>
            </g>
        </g>
    </g>
</svg>