<?xml version="1.0" encoding="UTF-8" standalone="no"?>
<svg width="241px" height="114px" viewBox="0 0 241 114" version="1.1" xmlns="http://www.w3.org/2000/svg" xmlns:xlink="http://www.w3.org/1999/xlink" xmlns:sketch="http://www.bohemiancoding.com/sketch/ns">
    <!-- Generator: Sketch 3.3.3 (12072) - http://www.bohemiancoding.com/sketch -->
    <title>trees-left</title>
    <desc>Created with Sketch.</desc>
    <defs></defs>
    <g id="Page-1" stroke="none" stroke-width="1" fill="none" fill-rule="evenodd" sketch:type="MSPage">
        <g id="flattened" sketch:type="MSLayerGroup" transform="translate(0.000000, -36.000000)" fill="#377B2A">
            <g id="bg" transform="translate(-1.000000, 3.000000)" sketch:type="MSShapeGroup">
                <g id="trees" transform="translate(1.000000, 0.000000)">
                    <path d="M241,144.267539 L241,147 L0,147 L0,130.776119 L12.6672543,130.744167 L13.2950008,129.336243 C14.7326337,125.782383 15.8360613,122.614553 19.149733,119.32287 C19.3691478,119.103254 18.9150693,118.23075 19.149733,118.040927 C19.9147197,117.403786 23.6456183,115.89712 23.0280377,113.326424 C22.9238369,112.913154 18.4881,113.326424 18.1149254,113.326424 C19.1395671,111.626529 20.0091782,110.704228 20.9579989,108.18418 C21.4116538,106.97374 20.8101693,105.674772 21.4773088,104.758004 C21.7208677,104.42177 25.1827926,104.473695 23.5405703,101.760844 C23.0072823,102.807424 23.0030465,103.801654 21.7306101,103.801654 C19.7791739,103.801654 18.7155628,103.382 17.1550916,102.832961 C17.7667421,103.914441 17.9505761,106.151883 16.9712576,107.183992 C16.070725,108.13566 14.9512013,106.878403 14.5881926,107.833476 C14.2993106,108.597024 13.7427256,109.808741 12.5753372,109.120526 C10.423971,107.862417 10.6738836,106.488968 12.7570534,104.284723 C13.141241,103.879966 14.2256076,104.426026 14.2256076,104.122991 C14.2256076,102.87084 14.1459744,102.130276 14.9558607,101.063266 C15.4743234,100.380585 16.9771877,99.6387433 16.787,98.8053951 C16.5925764,97.9422541 16.8767991,97.2646798 17.5871439,96.8607741 C19.0777243,94.2815657 22.0588851,93.495886 23.0729373,90.8783726 C22.0042432,91.2197133 21.5463525,91.5410504 21.5014529,92.0436981 C21.373108,93.5597278 19.5123181,94.1500516 18.8604274,92.7063759 C18.3737332,93.5597278 18.272921,94.3058256 16.9712576,94.370093 C16.6408646,94.3883943 14.2501753,94.0576938 14.4543411,93.7061383 C15.1947602,92.3995097 16.9856593,91.7317245 18.6067026,91.3754873 C18.9400606,91.3035589 18.7515672,89.646226 19.7402045,89.3831978 C20.2036017,89.2601959 21.5374573,89.7138983 21.6302215,89.3831978 C21.969086,88.173183 22.4778064,87.652234 23.5096489,87.4326182 C23.5905529,87.1338387 23.670186,86.9214583 23.7993781,86.7648331 C24.8621421,85.5075754 26.1667706,86.7358915 26.6437224,84.6252818 C26.7326743,84.2196736 26.8381459,83.8017227 26.9376874,83.3675985 C25.1027359,83.7668225 21.9047017,87.0180722 23.3935878,83.6191352 C24.0772471,82.4393389 25.1027359,82.7087512 25.4055961,82.1771619 C25.6038318,81.8307138 26.1320369,81.2012337 26.7237792,80.6564504 L27.5285824,80.0222886 C27.5645868,78.0385113 27.0571371,76.9178751 25.3526485,76.9178751 C22.496444,76.9178751 25.4454127,81.4068043 22.7039985,80.8173317 L22.5163522,81.3791395 C20.9143701,81.9443522 20.5361126,81.354454 19.8647372,80.9594861 C20.3264401,81.7724049 20.7805186,82.4057155 20.6220994,83.5067736 C20.48613,84.4695079 19.0340955,83.0492408 18.8604274,83.5067736 C18.228445,85.1853872 20.9550339,86.8333566 17.7265019,86.8333566 C16.9068733,86.8333566 17.0953667,85.2973231 17.0953667,84.7261519 C17.0953667,83.9217453 16.2092359,84.025169 15.7132229,83.7263894 C14.7258564,83.1535157 15.563699,79.656688 16.5925764,79.295769 C17.8963578,78.9748576 16.9119563,75.9530128 18.2525891,75.3869489 C19.1594754,74.6016949 20.0633965,73.8892205 21.0028985,73.1737668 L22.0838764,72.3646785 C19.7300385,73.0222489 18.2487769,73.4614804 16.5925764,74.0845763 C15.4772885,74.5080602 16.259642,72.8600908 16.3401223,72.6472848 C16.9462663,71.0478351 19.6665014,72.6813337 20.3713397,71.6479479 C21.152846,70.5030518 22.3312475,70.5307166 23.8938366,70.3166338 C24.2110986,70.2732214 25.0281857,69.9608222 25.0281857,69.9608222 C26.1468623,68.8733837 26.783504,67.9097982 27.4061676,66.6746723 C27.7746828,65.9336819 27.6289711,65.1535352 27.2600323,64.3738141 C26.5395216,64.8862509 24.8752731,64.0384319 24.5266662,63.7800855 C23.8709633,63.2978671 23.8883301,70.7413945 21.1248897,65.8851622 C20.9253832,66.2422506 18.3529777,71.00953 18.3529777,67.6595384 C18.3529777,66.9142919 18.0950171,65.7544993 18.7308117,65.3301642 C19.3212832,64.9390268 20.7250295,64.9156182 21.1248897,64.3308273 C21.9047017,63.1901873 21.4976407,62.2981047 22.8895268,61.5622216 C24.533867,61.483909 24.4050985,60.7910128 24.7532818,60.3577398 C24.6401858,59.6461166 24.9244084,59.2022034 25.8677226,58.92513 C27.6289711,58.3982224 28.0822024,57.691281 28.1660714,56.9928518 C27.016897,56.9885956 25.4318581,57.750441 25.2827577,57.5738121 C24.5711421,56.7455712 26.0829016,56.7540835 26.2862203,56.5749008 C26.7326743,56.1795073 27.1914122,55.0137562 27.833137,54.0978393 C27.8026391,53.2695984 27.5446785,52.8452633 27.3998139,52.3873049 C26.4145653,52.1974819 26.8326394,52.7682276 26.5395216,53.024446 C26.3510282,53.1972444 25.1768625,52.9482614 24.9040765,53.024446 C23.9738934,53.2981144 26.0028448,56.3216617 23.8938366,56.4625393 C23.0233783,56.5208481 20.5001082,55.784965 20.2429947,56.6872624 C20.1036367,57.1737368 20.1684445,58.9008701 19.3610998,58.9008701 C17.0508907,58.9008701 19.8096717,56.7787689 19.2382614,56.4625393 C18.8502615,56.2527126 17.7815674,56.1548218 17.7265019,55.7998615 C17.3440086,53.4398432 21.1443744,53.7428789 21.2532347,53.3615306 C21.378191,52.9176174 22.3172693,52.1532183 22.8895268,52.2515347 C23.2618542,52.3187813 23.3554656,50.5780285 24.2703998,50.2571171 C24.7354914,50.0962358 25.192535,50.5290831 25.530976,50.5890944 C25.9880195,50.6712375 26.4014343,50.4226801 26.8877049,50.2371133 L27.4942724,49.4676069 C27.6501501,48.8377012 27.833137,48.2529104 27.9364906,47.7855885 C26.2408972,48.1903455 25.7385305,46.8002968 25.9138929,45.1378566 C25.6601681,45.7337133 25.8190108,46.5266284 25.4055961,46.707939 C24.2814129,47.1224851 24.3661291,48.1473586 23.7697275,48.038402 C23.3029416,47.9558333 22.719671,47.0926922 22.3816536,47.1522779 C21.1312434,47.3757242 21.9047017,48.580206 21.5014529,48.813867 C20.1074489,48.9066504 19.1632876,49.764684 18.9841129,49.9247141 C19.3331434,49.6140174 19.2979862,48.5367936 19.4873268,48.038402 C20.1188856,46.3823459 21.8005009,44.8271598 23.7697275,44.8271598 C22.8700421,44.0321167 25.1522948,41.945767 26.1621112,42.1653827 C27.4091327,41.1941363 28.6082896,41.8048894 29.0466956,41.0724112 C30.1111539,39.3133571 29.6879968,35.7501338 30.6986603,33.7378406 C31.1408785,32.8636336 31.8402102,35.7450265 31.419171,37.7334855 C31.0557388,39.438487 32.9258475,39.9602872 32.9258475,42.7842225 C32.9258475,44.973996 32.9406728,46.0112123 33.0025156,46.8254079 C35.1695544,47.1658975 35.7075018,48.1507635 36.2344362,48.1507635 C37.1493705,48.1507635 39.1135141,48.0971364 39.6345183,48.7015054 C39.8441907,48.9504884 40.4600771,51.2075086 40.5164133,51.4756441 C40.9192385,53.6168978 35.839659,50.047716 36.4868903,49.4816521 C35.2479168,49.8421454 34.3342532,49.1105185 33.5616421,48.7657728 C33.3189304,49.1939384 33.3388386,49.3416258 33.3642535,49.5016559 C33.5379216,50.6316556 34.7061571,51.8127287 35.6609079,52.9325138 L36.1433663,53.5228375 C36.8312614,53.3470598 37.3662438,52.7380091 38.1240296,53.1380843 C39.2482127,53.7335155 40.4715137,55.1414398 38.5027107,55.5751384 C39.3968895,55.5751384 40.2360029,55.4376657 40.7646316,56.018626 C41.4419371,56.7638725 40.557077,57.6470173 41.142042,57.9053638 C41.4567624,58.0419852 43.5983863,59.0200415 42.1527055,59.2315706 C38.7750731,59.729111 38.2832959,57.4763469 37.2239207,56.0926825 L36.6402265,55.497677 C35.7579079,56.366351 33.9661616,57.1835259 33.8966944,57.8121548 C34.6472794,57.7938534 35.1695544,58.2079739 35.5562835,58.8174502 C36.4483444,59.1724105 36.7897505,59.5771675 37.3662438,60.3428434 C38.1638462,60.3428434 40.3626535,61.3907 40.0081165,62.0065605 C40.8925529,62.0065605 40.5909635,62.8731064 40.3855269,63.2238107 C39.5464135,64.7006841 43.2667227,62.7318033 42.780452,64.4427633 C42.3810154,65.8613279 40.69347,65.3650644 39.8852781,66.4363296 C38.128689,63.8090271 38.3879204,65.7251321 36.7351085,64.9986125 C35.6562486,65.13949 34.6621047,65.5889363 33.1050221,66.3056668 C33.0707121,66.3644012 33.4629478,66.8793917 33.4629478,66.8793917 C34.4570916,67.4411995 35.5020652,66.6363673 36.2344362,67.4360921 C36.4911261,67.7242314 37.3378639,69.3045286 36.9871391,69.7616358 C36.7012221,70.1404304 35.7761219,69.4734965 35.606266,69.3228299 C35.3127246,69.0632066 34.8950741,68.8248639 34.4376069,68.5763065 L33.3032579,67.9340581 C34.1982839,68.8342274 35.4830041,69.4692404 36.0243402,70.4681516 L37.2332394,70.7997033 C38.2087457,70.7371384 39.1834049,70.701387 40.1373086,70.7613983 C41.3868716,70.8431157 42.3225613,71.901187 42.9079498,72.760072 C43.1959847,73.182279 44.1109189,73.3486933 44.4192857,74.0845763 C44.9441021,75.3584329 44.2913643,77.1902667 44.0414517,78.5220065 C43.6038929,80.8313769 42.4860635,79.1897917 42.0277492,78.0776676 C41.8684828,77.69334 41.859164,74.8996232 41.5207231,75.1962747 C41.05309,75.6057134 40.452029,75.6257172 39.9183174,75.4209979 C39.9284833,76.3752198 39.8746886,77.2643232 40.0873261,78.1998183 C40.3262256,79.2715091 40.0725007,79.9299308 39.7836187,80.5257876 L40.2042343,81.2548608 C40.341898,81.4842657 40.452029,81.7294181 40.5164133,81.9583974 C40.6655137,82.4891355 42.0277492,81.5966272 42.9079498,81.5149097 C44.2019888,81.3876517 45.4494339,83.0002954 44.544242,84.0634741 C45.6641893,84.0634741 46.2555079,85.6676055 45.2999099,85.9451045 C44.2418054,86.2579293 44.215967,84.9470445 43.6631942,84.9470445 C42.8626267,84.9470445 41.7596226,84.7516886 42.5301158,83.3965401 C42.1167011,83.7617152 41.307662,84.3703403 40.6396753,84.1707283 C40.2660771,84.0634741 39.913658,83.8591803 39.6099506,83.6004083 C39.5121035,84.9410859 39.1719682,86.000434 37.5280516,87.8646144 L38.0295711,88.8405426 C38.4027457,89.4163955 38.5967456,90.1424895 38.9445054,90.7426024 C39.3774048,91.5112575 41.8396793,89.1099549 42.7885001,89.9377702 C43.3654169,90.4510582 43.4501331,91.2644026 43.5196003,92.0351858 C43.7589234,94.7837878 41.6905789,96.3632337 41.6905789,99.1275833 C40.4067059,97.4362015 39.6751821,95.9001679 39.6751821,93.4822665 C39.3329289,94.2441118 39.2122084,96.0116783 38.5755666,96.387068 C38.0338069,96.7050001 37.4132612,95.7337537 36.9193661,94.6229065 L36.4483444,93.3984209 C36.1696283,94.8765712 36.14972,96.1342545 36.2975497,97.4055574 L36.4081043,98.1478246 L37.7906716,98.5610938 C39.0889464,99.0194779 40.302505,99.6353384 41.3711991,100.340577 L42.4860635,101.178607 C42.6893822,100.746186 42.7842643,100.608713 42.8533079,100.539764 C43.7635828,99.5800088 44.0965172,98.0686608 44.9919668,96.9275952 C45.8132897,95.8959118 46.9218003,96.3823863 47.2801496,94.5254413 C47.5088832,93.3073399 48.0019311,91.7951407 48.4178873,90.6204517 C46.2800756,90.9422144 47.3195426,89.3721319 48.1340883,88.5140982 C48.7211711,87.895684 48.2903895,87.5683884 48.8469745,86.861447 C50.0147865,87.7931116 50.2744414,88.1250889 50.2744414,89.114211 C50.2744414,90.6493933 51.204201,90.3225234 51.4185329,91.2239695 C51.8319476,92.9698297 52.7223142,94.4573434 53.2738162,95.7277951 C53.8494624,97.0803899 52.3148296,97.1765782 52.9849342,98.7372972 C53.4606153,99.8434626 54.0400737,99.1412029 54.700436,99.6353384 C55.2379599,100.0435 54.8944359,100.633824 55.1282525,101.285862 C55.3925668,102.042174 54.5555714,102.208163 54.700436,102.792102 C54.7800691,103.133869 55.5662349,103.489255 56.1181605,103.899119 L56.252012,100.273331 C56.252012,99.5757527 57.580361,99.8719786 58.0242736,99.5893723 C58.7134393,99.1463103 58.9324306,98.4636287 59.2369851,97.839256 C59.6093125,96.3772789 62.8471632,95.8210041 63.1051238,94.725479 C63.3101369,93.8661684 62.5290541,93.4341723 62.2105214,92.7263796 C61.9678097,92.3020445 61.8572552,92.0781726 61.7788927,91.805781 C61.1274256,92.9553589 61.8233687,96.4504842 59.0184174,95.212379 C59.0184174,95.8269627 57.4943741,99.5357452 56.475239,98.0354631 C55.4806716,96.5785934 56.5298809,93.1851893 57.6900684,92.3901462 C58.0242736,92.1598901 58.7896839,92.360779 58.6846359,91.99986 C58.5308761,91.4584816 58.05816,90.6940826 58.6846359,90.2505949 C59.1874261,89.8935065 60.0019718,89.6560151 60.4543559,90.0535366 C60.4543559,88.3144862 61.3663252,87.8314166 62.8175126,87.6041399 C62.633255,87.11043 60.3349062,87.0712737 61.1024344,85.2973231 C61.8187093,83.6344572 62.5091458,83.2101221 63.171626,82.8398397 C61.7983774,82.9479451 61.2803383,82.928367 60.7839017,82.8543105 C60.690714,82.8398397 59.698688,86.0140536 59.3509283,86.4532851 C59.0768716,86.798882 58.1322867,86.3745469 58.1322867,87.4275109 C56.7704748,83.820024 60.1756399,79.8384243 62.9962636,78.1849218 C63.022102,78.1713023 63.0674252,77.3562554 63.1051238,77.30731 C63.6680626,76.6148394 64.8985644,76.2692425 65.9757301,76.0836757 C66.2794375,75.4061014 66.3650008,75.1669075 66.4692016,74.9289904 C66.851695,74.0611677 65.8173109,72.6860155 65.0811277,71.3947088 C64.7066824,71.7011494 64.339438,71.8428782 63.8324119,71.8428782 C63.1551064,71.8428782 64.4648178,72.6170663 64.6774553,73.182279 C64.8922107,73.7491941 64.7935164,74.421661 64.6774553,74.820885 C64.3254598,76.0798452 62.4998271,74.6897965 61.9728927,74.2258795 C63.1165605,77.2392121 57.7201426,76.1756078 59.4347972,75.4158905 C56.8992433,73.1980267 62.6485039,71.2482983 62.9865213,70.0587129 C63.1004645,69.6675755 63.8480844,68.3281748 64.1712764,68.2694403 L65.4208394,67.8744724 C64.4072109,67.3054292 63.0314208,66.2367176 62.6485039,67.0807061 C62.2600804,67.9340581 61.8822464,69.5020125 60.9575698,69.9080463 C59.1620113,68.0838735 61.9377355,64.8479459 63.4939709,64.6947256 C64.7481933,64.574703 65.4831058,64.2469818 66.2794375,63.8188162 L67.0600967,63.0978295 C67.2494372,62.3461988 67.587031,61.8401462 68.0644065,61.3089825 L68.1592885,60.7518565 C67.8907384,59.4171374 68.3736204,59.3337175 68.0605942,57.6963883 C67.8259305,56.4587088 69.0454193,56.80388 69.2440787,55.9105206 C69.3775066,55.3270066 68.3486291,53.56625 69.2440787,53.8241708 C69.8654715,54.0105888 70.1543535,55.1073908 69.920537,55.6155715 C69.5418559,56.4523246 70.6414713,56.4182756 71.1027507,57.1009572 C72.3764578,58.9727985 69.920537,58.261601 69.920537,59.3379736 L69.9751789,60.0355516 C71.0137987,61.5711595 70.2784627,62.2695887 71.4517812,63.5017353 C72.2625146,64.3606202 73.1825318,65.54978 73.4608243,66.500597 C74.585431,67.6710299 75.9180159,69.3470898 76.0120508,69.9080463 C76.1615748,70.8431157 76.0285704,73.4946782 74.6553219,72.2914732 C74.217763,71.9058688 74.2474137,71.0550705 74.1533787,70.3557901 C74.01275,69.3811387 72.393401,69.7514211 72.1235801,68.5677943 C71.6360388,68.0838735 71.2679472,68.0549319 70.8405542,67.9859827 C71.5110825,69.8735717 72.2684447,72.1544262 72.815711,74.2748249 L74.1533787,75.1196646 C75.3669374,75.5269752 77.5204216,75.9662068 77.8728407,77.2051631 C78.0676878,77.9018899 77.1222557,78.4815734 77.7042556,78.9884772 C77.8728407,79.145528 80.7786042,82.2652636 78.7174606,82.2652636 C77.1463998,82.2652636 76.9481641,80.8705332 76.5216183,79.7358518 C76.5012865,79.685204 75.09161,80.7151849 74.4909726,80.9245859 C73.8403526,81.1544164 74.3219639,78.248338 74.3219639,77.5022403 C74.0792521,77.7171743 73.3629772,77.9018899 73.3629772,77.9018899 C73.0092873,79.8865184 71.1794188,79.3004508 72.595449,81.0952563 C74.519776,83.5220957 71.6703488,81.9281789 73.6056889,83.9715419 C73.8255273,84.2009467 74.186418,84.732536 74.4363306,85.3262647 L74.8095052,85.9114811 C75.1475226,86.3268784 75.4563129,86.7116316 75.7100378,86.7448293 C77.3365876,86.9844489 78.0325306,88.0816765 78.0325306,89.5670622 C78.0325306,91.590847 78.4154476,90.5425647 80.3499405,91.5112575 C81.5330014,92.1079655 82.006141,92.6829672 82.2297916,93.8465903 C84.0791448,93.5976073 84.5044199,93.2043419 84.707315,92.1364815 C84.9707822,90.7328133 85.5375331,88.9920604 86.0191444,87.6373376 C83.5572934,88.0127273 84.7526381,86.2030253 85.6921401,85.2190105 C86.3677513,84.5078129 85.8704675,84.1273159 86.5126159,83.3131202 C86.7959913,82.9619903 87.0243013,83.5067736 87.3322445,83.8336436 C87.8591788,84.3856623 88.1535674,84.7699899 88.1535674,85.9114811 C88.1535674,87.6756427 89.2235322,87.2955712 89.4721741,88.3298082 C89.944043,90.3429527 90.9724969,92.0585945 91.6040556,93.5214228 C92.2767018,95.0757576 90.500628,95.183863 91.2766278,96.9773918 C91.8226233,98.2546532 92.4914572,97.4502466 93.2467015,98.0163105 C93.868518,98.4883142 93.4716229,99.1612067 93.7397494,99.9222008 C94.047269,100.789598 93.0878588,100.979847 93.2467015,101.646355 C93.4368893,102.437142 96.8687399,103.289643 94.8880767,104.593292 C94.1167362,105.098493 92.7511121,105.065721 91.9331778,105.455582 C91.0529772,105.87864 92.6905401,106.804346 93.5754001,108.047984 C94.2120419,108.944749 94.6648496,110.514831 95.3790067,111.162612 C97.3605171,112.946778 100.021451,114.277241 95.7081289,114.277241 C96.932277,114.277241 98.4292112,116.003948 96.5349584,116.003948 C95.0227753,116.003948 93.5550683,116.012886 92.2627236,116.349545 C93.9926271,116.349545 101.23501,117.763428 98.0119842,119.464173 C98.4190452,119.897872 100.084988,121.053408 100.802534,121.364531 C101.010935,121.458165 102.427813,121.63905 102.443485,121.71183 C102.556581,122.188941 101.737376,122.277043 101.623433,122.750323 C101.544223,123.085705 103.511332,124.228048 103.754891,124.998406 C100.57846,124.998406 98.160661,124.134839 94.7241509,124.134839 C97.8967702,124.134839 99.0116346,129.152378 101.623433,129.152378 C101.265507,129.52564 101.171049,129.907414 101.245176,130.272163 L104.297921,130.593075 L107.367187,130.068721 L108.290593,129.10173 C108.466379,128.521621 108.372344,128.42671 108.286781,128.316902 C107.392178,127.18222 102.860712,129.037889 104.054786,127.528243 C106.237497,124.768149 106.874563,122.472399 109.843016,120.141322 L108.834471,120.56055 C108.002982,121.03 107.614558,122.176598 106.629733,122.390256 C105.249284,122.088497 105.020127,121.706723 105.203961,120.9087 C105.109078,120.141322 104.870603,119.392671 104.816384,118.620611 C104.6101,115.754965 107.047807,116.540645 108.446894,114.740306 C108.834471,114.238936 109.19282,113.293226 109.744745,112.913154 C110.355972,112.493075 111.429749,112.801218 112.317151,112.809731 L113.017753,112.324107 C113.455312,111.582691 112.878395,110.788074 113.514614,110.227543 C113.747583,110.018567 117.085399,110.052191 115.504172,108.390176 C114.180906,108.292285 114.160998,108.166304 114.17074,108.032662 C112.222692,108.86218 111.993535,110.075174 110.908745,110.285852 C109.078029,110.646345 110.68806,109.906206 109.223318,109.257148 C107.858117,108.656609 106.620838,108.804297 105.075616,109.032425 L104.686345,109.603596 C104.263611,109.48102 104.552917,109.003909 104.552917,109.003909 C104.438127,107.573852 105.577135,105.897367 106.113812,104.694162 C106.869903,102.987458 110.982448,99.8434626 112.858063,101.496114 C112.973277,101.599112 113.75902,100.999425 113.892024,100.925368 C114.17074,100.774276 114.463011,100.585304 114.763329,100.384841 L115.504172,99.6004382 C116.775761,98.4436249 118.035914,99.1956812 118.492534,97.903949 C118.8907,96.7769285 116.775761,95.9627329 116.618189,94.9931889 C116.586844,94.8071965 116.697822,94.6029027 116.862595,94.3981834 C116.486879,96.8556668 113.634487,98.8454026 113.634487,94.6463151 C113.24564,95.6758704 113.117295,96.8701376 111.947789,97.3859792 C111.619514,97.5289849 111.758872,96.8458777 111.429749,96.6986159 C110.948562,96.4896405 111.156963,98.6351503 110.00313,97.9571505 C109.297021,97.5426044 109.371994,96.8756705 109.664265,96.2321453 C108.690877,96.3253543 109.579549,93.1353927 110.028121,92.6582817 C110.624523,92.0351858 111.235749,91.6257471 111.843588,91.2537623 L112.351037,90.5561843 C112.509033,90.3672126 113.549347,90.1676006 113.549347,90.1676006 C113.986059,89.8351977 114.285954,89.5576987 114.583308,89.2257214 L114.787897,88.5387837 C114.787897,87.9744222 114.906076,87.7548065 115.679534,87.6956464 C115.653696,86.6865205 116.051438,86.2919782 116.618189,86.000434 L117.413674,85.4186225 C117.851233,84.6001707 118.105805,83.7902312 117.9207,83.143301 C117.630971,82.1286421 114.076705,82.4265705 114.300356,81.2310266 C114.468517,80.3308573 116.338626,80.763279 117.339971,79.9533395 C118.707289,78.8620705 119.313433,76.5416341 119.735743,75.3584329 C116.007386,75.9172614 117.822005,73.182279 119.238883,71.6871042 C120.008529,70.8771647 119.777677,70.3557901 120.024201,69.6207582 C119.875101,69.2453685 119.506586,69.2296209 119.732778,68.8406115 C120.099175,68.186446 120.686258,65.13949 121.417782,65.2995201 C121.582131,65.3348459 121.664306,66.4465443 121.677013,66.5537985 C121.750716,67.3773577 121.158974,67.5378134 121.158974,67.9238434 C121.158974,68.1281371 121.807053,68.2639073 121.807053,68.4992708 C121.807053,68.6699411 121.77486,68.91254 121.715983,69.1811011 C122.521633,70.4243136 122.974017,71.00953 122.974017,72.7345352 C122.974017,75.4112088 124.595484,74.8400375 124.964423,76.4058639 C125.019065,76.6199467 124.088034,78.9548539 124.576847,79.4472869 C125.460436,80.3308573 127.887977,79.5992303 127.181444,80.7198666 C129.539518,81.1595237 131.906487,81.6608946 131.011884,83.2250185 C132.10557,83.7076625 131.762469,84.1656209 131.011884,84.8248938 C130.692928,85.1066489 129.908033,83.1569206 129.589924,83.2250185 C129.414562,83.2633236 129.042658,83.9025927 128.680073,84.025169 C127.282256,84.4878092 127.772339,82.801109 127.121296,82.8828265 C126.515999,82.9619903 125.755672,83.6931917 125.047868,83.2250185 C123.865655,83.1275534 123.495445,83.3629168 123.56576,83.5220957 C124.298131,85.3028561 131.59812,85.6633494 129.932177,86.0719368 C126.316492,86.9648707 126.529977,86.7954772 127.703719,89.5147119 C128.539444,91.4486926 129.544601,90.2263351 130.692928,91.0881993 C131.637513,91.7951407 131.031793,92.8289521 131.43843,93.9687409 C131.906487,95.2847331 130.450216,95.5737236 130.692928,96.5926386 C130.941993,97.6409208 134.955844,98.7564497 133.945604,100.340577 C134.498377,101.300758 135.488285,101.42376 135.035054,102.749967 C134.871975,103.236441 134.284892,103.690569 134.777093,104.122991 C135.54208,104.796309 135.154503,105.044441 134.641547,105.835228 C134.223473,106.483009 132.547788,104.170659 132.180543,103.778245 C131.75781,103.325394 130.966985,101.700408 130.752653,102.635903 C130.633627,103.163661 129.857627,103.24623 128.819007,103.205797 C129.068073,104.122991 130.350251,105.118497 131.190212,106.294037 C131.429111,106.634527 131.652762,107.039284 131.87133,107.468726 L132.38005,108.521265 C134.061665,107.536399 136.293935,108.359532 136.722599,109.486127 C137.448616,108.634052 138.744773,108.70598 139.704607,109.486127 C141.108353,110.637833 142.023288,112.791855 143.85358,113.600518 C143.448213,114.317674 145.893121,115.169749 143.467698,115.882223 C140.84065,116.167809 140.044319,115.779225 138.924795,114.969711 C138.427088,114.604962 137.886175,113.712454 137.886175,114.282348 C137.935311,114.779888 137.945476,114.868841 137.929804,114.950133 L137.869656,116.187813 C137.810778,116.79814 137.646852,117.36463 137.23852,117.821311 C136.612044,118.528678 135.737774,118.752976 134.756761,118.681047 L133.314469,118.386524 C131.224098,118.489522 130.175312,118.620611 129.196418,118.879383 C131.822618,118.879383 142.803947,121.019359 137.910319,123.597717 C138.531712,124.252308 141.058371,126.001999 142.144008,126.47911 C142.456187,126.616157 144.605436,126.888123 144.633392,127.005166 C144.720226,127.367787 144.451252,127.579742 144.137802,127.791697 L146.714444,128.150913 C148.579046,127.75254 149.672731,127.610386 150.221268,127.610386 C149.578696,127.43929 148.892496,127.35204 148.171561,127.308627 L146.533575,127.478446 C145.877448,127.528243 145.310697,127.380981 144.928628,126.909829 C144.678291,126.607219 144.599929,126.227147 144.585104,125.820688 L144.633392,125.066078 C143.162296,125.552127 142.616301,125.81175 141.65096,125.772594 C139.303053,125.143114 140.969419,124.579603 140.735602,124.10079 C141.98813,123.56537 142.704405,122.136591 143.690078,121.369638 C144.365265,120.848689 145.232335,120.805702 145.6754,121.369638 C146.012147,120.620135 147.532378,120.075352 148.349042,120.517137 C149.161469,119.741247 149.330478,119.473962 149.503723,119.251367 C150.115797,118.464837 151.015906,117.80684 151.397552,117.31994 C150.533024,117.223752 150.020915,117.169274 149.966696,116.818144 C149.872238,116.198453 149.271177,117.275677 148.967469,117.577436 C148.704002,117.842166 147.475195,119.371816 147.230365,118.943224 C146.926658,118.420573 146.683099,118.255861 147.224858,117.80684 C147.574736,117.519978 147.204527,117.216091 147.120658,116.896882 C146.881758,116.012886 147.545509,115.929892 148.006365,115.379576 C147.364216,114.238936 150.085299,113.498371 150.30429,112.805474 C150.513539,112.127475 149.559212,111.933396 149.931963,111.060466 C150.258967,110.300323 149.907395,109.618067 150.569028,109.144786 C151.373831,108.575317 151.979975,109.388662 152.628054,108.101611 C153.542988,106.294037 153.677263,106.404696 151.31453,105.816075 C150.225504,105.542407 155.094988,105.305341 155.665974,104.120011 C155.720616,104.017865 155.043734,103.58672 155.043734,103.58672 C154.203774,104.236204 153.735717,103.748878 153.333739,103.694825 C152.90677,103.640347 153.151176,104.761834 152.243442,104.457096 C152.01132,104.371974 151.792753,103.948915 151.676268,103.924656 C151.474643,103.874859 150.851556,105.171273 150.658403,104.986983 C150.190347,104.548177 149.981098,104.240034 150.732106,103.924656 C150.214914,102.880629 151.810966,102.549503 153.001228,102.353722 C152.98132,101.510585 154.561699,101.998336 155.193682,101.413119 C155.541018,101.086675 155.034415,99.5302122 155.078891,99.3901859 C155.402507,98.3512671 156.452987,98.7321898 156.581756,96.9531319 C156.666048,95.8082358 156.994747,95.4179496 157.561498,94.8616748 C157.894432,94.535656 158.168489,93.9836373 158.421367,94.341577 C159.013109,95.1579007 158.487022,95.5388234 159.111803,96.2564051 C159.984379,97.2497834 161.057733,99.0671464 158.600541,98.6930335 C158.828428,99.4825437 159.122393,101.023259 159.973366,101.748502 C160.605772,102.286901 161.863383,101.998336 161.932427,102.597172 C162.027733,103.391789 159.674742,103.192177 159.435842,103.865496 C159.282506,104.298768 159.411698,104.836742 159.663729,105.376418 C160.531222,105.956101 160.774357,106.21913 160.626528,106.542169 C161.217423,106.931604 161.282654,107.078866 161.255969,107.45383 C161.540191,108.130553 161.729532,108.311864 161.918449,108.471894 C162.554667,108.575317 162.968082,109.183942 162.968082,109.183942 C163.469178,109.504428 163.853365,109.773841 164.219763,110.193494 C164.493396,110.509298 164.932649,112.624164 164.226963,112.365817 C164.455273,112.99019 164.468828,113.434103 163.98171,113.708623 C163.186649,114.162325 163.42682,112.732695 163.096427,112.874424 C161.967584,112.985083 161.938357,112.191742 161.729532,111.50906 C161.525789,114.296393 159.723877,112.975719 159.86027,111.128563 C159.694227,111.479693 159.759882,111.615889 159.731078,111.743573 C159.57986,112.385821 158.133755,112.927625 158.34131,113.672872 C158.585716,114.53048 159.456174,114.033365 160.097052,114.546653 C160.178803,114.610069 160.700231,115.323395 160.700231,115.323395 C161.340685,115.729429 161.833733,116.129504 161.913789,116.061406 C163.240444,114.959922 165.823015,117.051379 166.239819,118.188189 C166.54395,118.986637 167.220408,120.099186 167.070461,121.049578 C165.708649,120.918064 164.892409,120.820599 163.95206,121.218971 C162.946903,121.64884 163.98171,122.141273 162.7834,121.901227 C162.078139,121.761627 161.983257,120.956369 161.326706,120.614603 C160.725222,120.493303 159.822995,120.645672 159.822995,120.645672 C158.694576,121.74673 160.914562,121.728429 161.057733,121.863774 C161.456322,122.23363 161.032741,122.764794 161.287313,123.252971 C162.316615,123.574734 163.041361,123.368312 163.433597,123.646236 C163.783051,123.900327 163.971544,124.528956 164.205784,124.860507 C165.047016,126.056051 166.707028,125.534677 166.435513,127.43929 C166.359269,127.952152 166.166116,128.448416 166.061915,128.956171 C166.144937,129.492442 165.977199,129.740148 165.643841,130.018498 C164.399784,129.799308 164.194771,129.037889 163.668684,128.731874 L164.4845,130.21811 L171.278311,130.633082 C173.616476,130.742039 175.855524,130.79822 178.039082,130.832269 L180.336584,129.243885 C180.878767,128.546307 181.833518,128.030891 181.355719,127.791697 C180.912654,127.57123 180.145973,127.591234 179.732981,127.308627 C178.684196,126.582108 180.639444,126.104997 180.773296,125.666191 C180.886815,125.286119 180.359034,125.183121 180.566588,124.693667 C180.743645,124.270609 180.550492,123.896496 180.919007,123.632617 C181.364614,123.31128 181.703479,123.764131 182.060981,123.051657 C182.563771,122.048064 181.578946,121.985073 182.011845,121.116399 C182.130872,120.88742 183.726924,120.507348 183.645596,120.282625 C183.567657,119.673574 181.788195,120.429461 181.907221,120.206441 C182.022011,119.986825 182.937369,119.225405 183.558762,119.38203 C183.90271,119.083251 183.324946,118.513782 183.413898,118.2133 C183.593072,117.637021 184.174225,117.845997 184.249199,116.861131 C184.288592,116.222713 184.474544,116.007353 184.786723,115.697082 C185.593644,115.863071 185.300526,116.077154 185.652945,116.471696 C186.13498,117.027119 186.730958,118.035394 185.369993,117.825993 C185.453862,118.109876 185.269181,118.415891 185.879984,119.69826 C185.995622,119.942136 185.285277,120.835495 185.419552,121.102779 C186.805932,120.961051 187.502722,120.420949 188.030927,120.55757 C188.338447,120.269431 187.739927,119.722094 187.811936,119.44119 C187.94494,118.890023 188.512962,119.089209 188.512962,118.148181 C188.512962,117.539131 188.670957,117.334837 188.950944,117.042867 C189.730333,117.19779 189.46856,117.403786 189.825638,117.77875 C190.327158,118.303955 190.962952,119.270094 189.651123,119.069206 C189.746429,119.342023 189.592245,119.631865 190.26235,120.858053 C190.38773,121.088309 189.775656,121.941235 189.920097,122.195751 C190.298354,121.922082 192.372205,122.881412 192.546721,123.531321 C192.714882,123.389167 193.08848,122.98441 193.019013,122.735852 C193.127873,122.131058 193.218943,121.804188 193.276974,121.63905 C193.352371,120.967009 193.243511,120.883164 193.382022,120.707386 C193.670904,120.936791 193.734441,121.019359 193.734441,121.263661 C194.02417,121.814828 193.888201,122.145954 193.958515,122.214478 C194.202921,122.595401 193.793742,122.730745 193.819581,122.795013 C194.207157,123.281487 194.236807,123.256376 194.402004,123.643683 C194.958165,123.963743 194.875991,124.110153 194.932751,124.270609 C194.867519,124.812413 195.60455,124.992021 195.177157,125.27633 C194.356681,125.548722 194.704441,125.747483 194.899711,126.016044 C195.033563,126.206292 195.130986,126.548059 195.286017,126.685106 C195.70875,127.069433 196.281008,127.35204 195.355908,127.35204 C194.984004,127.801486 196.540239,128.103245 195.847261,128.469271 C196.490257,128.898288 196.799471,128.932337 196.799471,128.946382 C196.6042,129.243885 197.031169,129.492442 197.081152,129.653749 C196.400881,129.653749 195.884536,129.468182 195.142423,129.468182 C195.823117,129.468182 196.061169,130.54498 196.624532,130.54498 L203.802954,131.076995 C210.937747,131.3064 212.540152,138.68566 219.678334,137.964674 C227.656584,136.522131 233.257156,142.205215 241,144.267539 L241,144.267539 Z M79.0220591,100 L79.254131,99.5385421 C79.7572266,98.9811632 80.1053344,98.264348 80.4456517,97.5164232 L81,96.501043 L79.078642,95.1659261 C78.4681209,94.6845927 77.8416089,94.2343687 77.0748698,93.9582717 C75.5147403,93.4086702 75.2666776,95.6800973 74.7225799,94.2538122 C74.4609865,93.576748 74.0948378,91.6082067 73.5466399,91.097492 C73.0373939,90.6217756 72.0734347,92.0329381 71.3001353,92.1971272 L71,92.1863253 L71.1115257,92.7043852 L71.3280167,93.4276816 L71.5153963,93.7599486 C72.1939809,95.1313599 73.1722908,94.1215967 74.510599,94.6508907 C75.6889991,95.1196939 77.5627947,97.2835339 77.1831153,98.5063109 C77.0814302,98.8428986 77.706712,99.1444882 78.3848866,99.5445912 L79.0220591,100 M47.5280724,104 L47.5506515,103.968721 C47.9149778,102.721289 48.600386,101 46.9027475,101 C45.766141,101 45.2950425,102.229225 44.3314145,102.619981 L44,102.689542 L44.2617639,103.009804 C44.6482867,103.559757 46.7091034,102.556022 47.492099,103.880486 L47.5280724,104 M41.8496501,105 L41.9861663,103.935729 C42.015492,103.429302 42.0028516,102.918025 41.9027397,102.396561 C41.7075721,101.406507 40.3767915,102.557124 39.9313441,102.762314 C39.7063451,102.872427 39.4985371,102.934033 39.3084256,102.956832 L39,102.939854 L39.688143,103.506916 C40.3115671,103.979386 40.9830248,104.417901 41.6195949,104.845744 L41.8496501,105 M45,107 L45.4946063,106.602043 C45.6450917,106.43908 45.7669903,106.258238 45.8425027,106.057471 C45.9304207,105.811239 45.9304207,105.512899 45.9563107,105.244189 L46,105 L45.5744337,105.128225 C45.4180151,105.249808 45.2912621,105.455172 45.2022654,105.75811 L45,107 M54.8960138,109 L56.5002644,105.776368 C57.8234012,103.784648 60.0782294,102.201603 59.9979111,101.232927 L59.9649384,101.123736 L59.5523564,101.018623 C59.0953881,100.878622 58.9102335,101.568203 58.7770743,101.74445 C58.3708333,102.296296 57.7760558,102.699533 57.2087556,103.141281 L56.1908279,104.303873 L56.3062325,104.453841 C56.344278,104.709829 56.2094279,104.984845 55.7841641,105.284781 C55.1141411,105.750996 53.9224725,105.726077 53.2186313,106.084006 C52.456031,106.472745 53.8730134,107.335401 54.6428,108.481682 L54.8960138,109 M45.0189802,110 L45.0232739,109.928571 C45.0189802,109.661197 44.9817373,109.336873 45.0113263,109.137066 C45.0223405,109.06612 45.0389552,109.026544 45.0607035,109.003861 L45.0855322,109 L45.1,109.45222 L45.0688242,109.661197 L45.0189802,110 M45.6235491,111 L45.9793652,110.732954 C46.0375896,110.56618 45.9793652,110.351088 45.7176039,110.059103 C45.5707987,109.898564 45.2737047,110.114694 45.0562339,110.126124 L45,110.102745 L45.4598239,110.744384 L45.6235491,111 M44.9348174,115 L45.0395497,114.967509 C45.6515636,114.73574 46.1548742,114.433213 45.9558332,114.050542 C45.9493805,114.036823 45.8977589,114.024188 45.8094066,114.015523 L45.5239986,114 L44.9119848,114.098195 C44.3798852,114.148375 43.7460315,114.173646 43,114.173646 C43.5643631,114.173646 44.1604934,114.400361 44.6851476,114.738267 L44.9348174,115 M80.5052516,115 L81.3724866,114.616517 C81.9501001,114.312231 82.4230263,113.906239 82.2368702,113.399792 C82.1749539,113.236811 79.4628588,113.399792 79.2335242,113.399792 C79.8616484,112.725778 80.3916027,112.364387 80.971253,111.365664 C81.2523202,110.887977 80.8832667,110.373193 81.2889811,110.010551 C81.4339955,109.880917 83.5513687,109.900508 82.552969,108.826338 L81.763944,108.826338 C81.5574207,108.568321 81.9639498,108.07146 81.763944,107.809691 C81.3333816,107.254891 78.9182401,108.482037 78.9182401,107.470392 C78.9182401,105.871017 81.8596698,105.780565 82.3945122,104.252052 C82.552969,103.789371 82.3945122,103.139534 82.7102037,102.897356 C83.3595097,102.400078 84.1546449,102.887769 84.4475251,102.052442 C84.8927518,100.771942 85.7383976,99 83.6580927,99 C82.2600888,99 81.6873634,100.266328 80.5052516,100.662316 L79.9418951,100.676905 L80.312578,100.997447 C80.5150279,101.359672 80.453519,103.422144 80.312578,103.377543 C79.6310918,103.179132 78.8791351,102.625166 78.2962261,102.237098 C77.8123017,101.918223 77.4925368,101.622691 77.0196106,101.283809 L76.1666327,100.308845 L76.1922953,100.504338 C76.2542116,101.726482 75,101.163345 75,103.569285 C75,105.45127 77.8746253,104.886883 77.0803049,105.909366 C76.7092146,106.390387 77.4542465,107.307829 77.0803049,107.789267 C76.7699089,108.196092 75.9625534,107.424541 75.6187553,107.789267 C73.7612675,109.782128 77.6799149,109.742946 77.9560941,109.99221 C78.7076434,110.660388 78.0286013,111.615761 78.5402251,112.502358 C79.0787336,113.423968 79.5928015,114.054631 80.1190897,114.606513 L80.5052516,115 M78.1143365,119 L78.9547972,117.915872 L80,117.038985 L79.539236,117.020964 C78.3126686,116.983284 77.1268235,116.983284 77.0725272,117.133186 C76.9100155,117.592312 77.0325592,118.009663 77.321008,118.375817 L78.1143365,119 M40.2957163,119 L40.3613304,118.917029 L41,118 L40.9627281,118.005072 C39.9268798,118.09529 38.9329623,118.277899 38,118.63442 C38.3094345,118.63442 38.7462146,118.680072 39.2618092,118.768478 L40.2957163,119 M188.041864,122 L188.109489,121.970491 C188.600458,121.746876 189.05459,121.521294 188.994662,121.354731 C188.879754,120.68651 187.652059,121.143575 187.094565,121.27276 L187,121.285876 L187.43269,121.505556 L188.041864,122 M187,123 L186.778225,122.417561 C186.760461,122.307461 186.752925,122.185129 186.765306,122.051922 L186.771227,122.012504 L186.760461,122.012504 C185.811996,121.96561 184.896905,122.036291 185.009408,122.47261 C185.089074,122.574554 185.849138,122.711839 186.600051,122.89126 L187,123 M192.300534,124 L192.340163,123.856459 L193,123.215307 L192.944138,123.202149 C192.340163,123.041263 189.803942,122.760759 190.012111,123.398322 C190.130041,123.52093 191.523721,123.729065 192.283346,123.995215 L192.300534,124 M185.054457,125 C185.209003,124.951807 185.542495,124.94191 185.949702,124.958692 L186.009181,124.967298 L186.302004,124.951807 C186.517554,124.936747 186.707686,124.872203 186.886633,124.527539 C186.945604,124.409208 186.981699,124.300775 187,124.208262 L187,124 L186.270993,124.157057 C185.495725,124.369621 184.796712,124.67642 185.054457,125 L185.054457,125 M192.140368,126 L192.548465,125.54601 C192.584594,125.415083 192.548465,125.220678 192.615386,125.149831 C192.756208,125.005869 192.929465,125.149831 192.99228,124.91065 C193.050991,124.696974 192.756208,124.537709 192.73568,124.356906 C192.718026,124.212944 193.016914,124.012871 192.823951,124.012871 C192.520136,124.012871 192.509051,123.935222 192.227407,124.161367 L192.133388,124.240716 L192.140368,124.247518 C192.16377,124.273023 192.176908,124.29286 192.187993,124.318365 C192.182655,124.311564 192.167465,124.305896 192.148579,124.305896 L192.06113,124.305896 L191.832448,124.512204 C191.783591,124.55868 191.752388,124.54621 191.73884,124.505402 L191.735966,124.376743 L191.575026,124.423219 C190.836839,124.645964 189.748443,125.164 190.052258,125.726245 C190.312143,125.583417 191.280654,125.687704 192.034854,125.955791 L192.140368,126 M185.990597,127 L186,126.898699 C185.930559,126.611524 185.287508,126.467472 185.539954,126.027416 L185.549358,126 L185.278104,126.085502 C185.032168,126.227695 184.946814,126.402881 185.032168,126.605483 C185.141393,126.866636 185.404689,126.919145 185.717896,126.946561 L185.990597,127 M191.515608,128 L191.584972,127.925855 C191.732727,127.758396 191.92229,127.601787 192.261508,127.440114 C192.29809,127.424562 192.2235,127.362352 192.261508,127.345353 C192.378856,127.29942 192.948495,127.188383 192.854426,127.002116 L192.10045,127.002116 C192.261508,126.873357 192.391684,126.807169 192.542764,126.62054 C192.609752,126.533013 192.514733,126.433912 192.620204,126.368447 C192.651085,126.342767 193.182242,126.347108 192.934242,126.14782 L192.737078,126.14782 L192.737078,126.035698 L192.624005,126.027018 C190.956896,125.903684 189.791013,126.213647 190.031411,126.731577 C190.210522,127.117855 190.706046,126.894696 191.113203,127.12545 C191.307517,127.233593 191.207272,127.535237 191.307517,127.7508 C191.3517,127.838328 191.416313,127.917536 191.49803,127.987341 L191.515608,128 M192.099741,130.0482 L192.033741,130.1 L192.037341,130.1 C192.062241,130.0986 192.081941,130.0929 192.092541,130.0798 C192.098441,130.0722 192.100841,130.0621 192.099741,130.0505 L192.099741,130.0482" id="trees-left"></path>
                </g>
            </g>
        </g>
    </g>
</svg>